<svg width="596" height="1137" viewBox="0 0 596 1137" fill="none" xmlns="http://www.w3.org/2000/svg">
    <g fill="none">
        <path fill-rule="evenodd" clip-rule="evenodd" d="M263.229 15.1991C255.435 22.9159 251.13 31.8429 249.588 36.6526C248.365 40.4674 247.976 47.1006 248.003 53.9075C248.029 60.6912 248.465 67.57 248.86 71.8289C248.883 72.0743 248.723 72.2996 248.484 72.3599C248.245 72.4201 247.998 72.2972 247.902 72.0703C247.628 71.4253 247.085 70.4773 246.363 69.7488C245.635 69.014 244.814 68.5851 243.951 68.7419C242.967 68.9209 242.021 69.3192 241.24 70.0359C240.462 70.7504 239.818 71.8082 239.479 73.357C239.274 74.2913 239.18 75.4052 239.236 76.7287C239.36 79.6378 239.794 83.1423 240.461 86.3675C241.131 89.6067 242.024 92.5084 243.043 94.2471C243.589 95.1773 244.137 96.3398 244.692 97.5311C244.739 97.6314 244.786 97.7319 244.832 97.8325C245.346 98.9371 245.868 100.059 246.412 101.077C247.008 102.191 247.611 103.142 248.229 103.787C248.851 104.437 249.407 104.694 249.925 104.629C251.344 104.452 252.109 104.018 252.56 103.579C252.983 103.169 253.172 102.721 253.352 102.297C253.369 102.257 253.385 102.217 253.402 102.178C253.431 102.11 253.469 102.033 253.518 101.963C253.549 101.919 253.668 101.752 253.895 101.713C254.199 101.659 254.382 101.865 254.44 101.95C254.501 102.039 254.531 102.134 254.548 102.191C254.613 102.421 254.651 102.824 254.688 103.271C254.7 103.406 254.711 103.551 254.723 103.704C254.797 104.624 254.895 105.852 255.106 107.171C255.201 107.768 255.297 108.537 255.406 109.404C255.441 109.687 255.478 109.98 255.516 110.281C255.673 111.513 255.86 112.893 256.109 114.287C256.61 117.099 257.347 119.877 258.524 121.592C258.58 121.674 258.611 121.771 258.612 121.87C258.668 127.965 258.738 138.401 258.719 145.376C258.71 148.831 258.679 151.469 258.61 152.292C258.535 153.197 258.009 154.116 257.245 155.015C256.472 155.924 255.406 156.871 254.151 157.834C251.639 159.762 248.302 161.806 244.863 163.807C237.952 167.829 226.044 173.216 211.9 178.098C205.318 180.369 200.67 181.078 196.163 181.766C195.801 181.821 195.44 181.876 195.079 181.932C190.239 182.679 185.374 183.546 178.175 186.463C177.372 186.789 176.593 187.102 175.837 187.406L175.312 187.618C169.023 190.15 164.329 192.079 159.954 195.191C155.587 198.296 151.513 202.599 146.525 209.907C135.869 225.519 134.862 246.628 134.862 257.625C134.862 266.438 134.445 274.816 134.236 277.909C134.23 277.989 134.206 278.067 134.164 278.136C132.334 281.129 129.464 286.033 126.803 291.011C124.135 296.001 121.699 301.023 120.715 304.27C119.861 307.091 118.495 310.963 116.987 315.241C116.283 317.237 115.548 319.322 114.819 321.429C112.521 328.072 110.282 334.949 109.227 340.1C107.569 348.195 105.814 351.28 102.573 356.981C101.622 358.652 100.544 360.548 99.3025 362.861C98.8492 363.706 98.3892 364.555 97.9227 365.416C92.7335 374.992 86.7419 386.048 80.2186 409.509C76.662 422.3 74.1652 434.845 72.0404 445.876C71.8555 446.836 71.6734 447.784 71.4936 448.721C69.61 458.531 67.9818 467.012 66.0897 473.147C64.0231 479.848 60.4881 489.889 57.3309 498.439C55.752 502.715 54.2662 506.621 53.1041 509.553C52.5232 511.019 52.0221 512.245 51.63 513.153C51.4341 513.606 51.2639 513.984 51.1235 514.275C50.9898 514.551 50.8656 514.787 50.7619 514.925C50.5754 515.174 50.3019 515.406 49.9964 515.621C49.6856 515.84 49.3147 516.058 48.91 516.272C48.1005 516.7 47.125 517.125 46.1563 517.511C44.2181 518.284 42.2663 518.913 41.6306 519.104C40.6621 519.394 37.8579 520.54 36.5553 521.086L36.5542 521.087C32.09 522.947 27.7478 525.553 26.0275 526.782C25.2762 527.318 24.595 528.002 23.8742 528.725C23.7958 528.804 23.7169 528.883 23.6373 528.963C22.8421 529.758 21.9906 530.581 20.9941 531.179C20.3257 531.58 19.4196 532.061 18.4631 532.568C18.0597 532.783 17.6472 533.002 17.2399 533.221C15.8443 533.974 14.5068 534.736 13.6708 535.393C11.9384 536.754 9.72548 538.849 8.63689 540.3C8.14897 540.951 7.97359 541.435 7.79806 541.92L7.76929 541.999C7.57212 542.541 7.35394 543.09 6.71544 543.729C6.17065 544.273 5.40932 544.868 4.62853 545.477L4.43548 545.628C3.57369 546.302 2.69079 547.003 1.96544 547.729C1.34508 548.349 0.872155 549.686 1.03051 551.068C1.18411 552.409 1.92556 553.734 3.66739 554.409C5.49454 555.116 7.708 555.184 9.84935 554.79C11.9898 554.395 14.0086 553.546 15.4369 552.475C16.8924 551.383 17.7699 550.386 18.4918 549.51C18.5804 549.402 18.6676 549.296 18.754 549.19C19.3606 548.446 19.9283 547.75 20.7023 547.214C21.5561 546.623 22.9366 545.919 24.3159 545.364C25.6783 544.816 27.1319 544.375 28.1119 544.375C28.2818 544.375 28.4401 544.461 28.5321 544.604C28.6242 544.747 28.6375 544.927 28.5673 545.081C27.3592 547.748 24.6 554.04 23.2075 557.919C21.6675 562.209 19.2433 571.983 17.9239 577.303C17.7534 577.991 17.6013 578.604 17.472 579.121C16.3473 583.62 14.3502 591.983 13.3531 597.219C12.3497 602.486 11.1091 609.443 10.9863 611.9C10.9699 612.227 10.9317 612.635 10.888 613.101C10.754 614.529 10.5691 616.5 10.8108 618.341C10.9694 619.55 11.3068 620.628 11.9181 621.411C12.5122 622.172 13.3959 622.694 14.7577 622.75C17.4778 622.864 19.2749 621.066 20.4579 618.973C21.5486 617.043 22.0465 614.979 22.2166 614.273C22.2305 614.216 22.2422 614.167 22.2518 614.129C22.3283 613.823 22.5132 612.797 22.7506 611.464L22.8156 611.099C23.0362 609.86 23.2907 608.43 23.5323 607.157C23.8088 605.699 24.0769 604.399 24.2626 603.842C24.4082 603.405 24.7635 602.212 25.2506 600.578C25.9826 598.12 27.0124 594.664 28.0754 591.272C28.7328 589.175 29.4009 587.109 30.0144 585.336C31.1393 582.087 31.9222 579.863 32.4869 578.342C33.0472 576.832 33.4041 575.981 33.6778 575.502C33.8581 575.186 34.1338 574.956 34.4944 574.927C34.8268 574.901 35.1034 575.059 35.2849 575.217C35.4714 575.381 35.6207 575.597 35.7046 575.819C35.7782 576.014 35.8514 576.355 35.6529 576.652C35.5528 576.803 35.1606 577.52 34.7103 578.545C34.2641 579.56 33.7764 580.843 33.4733 582.116C33.256 583.029 32.6651 585.211 31.9507 587.85C31.6306 589.032 31.2857 590.306 30.9385 591.598C29.8119 595.792 28.6608 600.18 28.2272 602.348C27.794 604.514 27.6084 606.091 27.437 607.648L27.4006 607.98C27.2419 609.431 27.0806 610.905 26.7288 612.839C26.5217 613.979 26.2245 615.319 25.9065 616.754C25.6502 617.91 25.3804 619.127 25.1332 620.349C24.5721 623.124 24.1119 625.99 24.1119 628.5C24.1119 631.044 24.3942 633.075 25.0619 634.454C25.3917 635.135 25.8072 635.64 26.3141 635.976C26.8185 636.311 27.4457 636.5 28.2369 636.5C31.4664 636.5 32.9598 634.321 33.4278 633.502C33.903 632.67 35.3851 629.217 35.9993 626.514C36.3009 625.187 36.7216 622.912 37.1341 620.682L37.1671 620.503C37.5872 618.231 37.997 616.023 38.2518 615.004C38.3603 614.57 38.6396 613.37 39.025 611.715C39.5257 609.563 40.2056 606.643 40.9224 603.634C42.185 598.334 43.5666 592.742 44.2641 590.712C44.6067 589.716 44.9339 588.726 45.2425 587.791L45.3064 587.597C45.5909 586.734 45.8594 585.92 46.1078 585.197C46.3741 584.421 46.6206 583.741 46.842 583.211C46.9527 582.947 47.0603 582.712 47.1641 582.519C47.2634 582.334 47.3771 582.153 47.5084 582.021C48.0132 581.517 48.7305 581.547 49.2105 581.787C49.4575 581.911 49.6915 582.111 49.8242 582.387C49.9648 582.679 49.9727 583.021 49.8091 583.349L49.8084 583.35C49.8073 583.352 49.805 583.357 49.8015 583.366C49.7964 583.378 49.79 583.393 49.7821 583.413C49.7663 583.454 49.7466 583.507 49.7229 583.573C49.6757 583.705 49.6157 583.882 49.5442 584.099C49.4014 584.534 49.2155 585.125 48.9982 585.834C48.5638 587.252 48.0061 589.139 47.421 591.199C46.2493 595.323 44.973 600.119 44.3522 603.223C43.7869 606.049 43.453 608.335 43.1502 610.408C43.1198 610.616 43.0897 610.822 43.0597 611.026C42.7314 613.261 42.4158 615.284 41.8462 617.5C41.7722 617.787 41.6865 618.11 41.5928 618.464C40.9659 620.828 39.9837 624.532 39.7829 627.905C39.6674 629.845 39.8165 631.61 40.3956 632.923C40.9581 634.199 41.9256 635.058 43.5468 635.254C45.1408 635.446 46.506 634.719 47.7054 633.357C48.9122 631.986 49.9022 630.021 50.7065 627.886C51.9787 624.51 52.7434 620.841 53.1991 618.654C53.3202 618.073 53.4195 617.597 53.5007 617.258C53.8646 615.742 54.662 613.044 55.4423 610.403L55.5387 610.077C56.3549 607.314 57.1279 604.684 57.3726 603.522C57.8721 601.15 59.6278 593.62 60.6397 590.711C60.81 590.221 60.9961 589.646 61.1936 589.036C61.5589 587.907 61.9635 586.657 62.3811 585.598C62.7043 584.778 63.0536 584.022 63.4264 583.487C63.6121 583.221 63.8251 582.978 64.071 582.815C64.3276 582.646 64.647 582.548 64.9935 582.643C65.4335 582.763 65.6126 583.151 65.68 583.464C65.749 583.783 65.7408 584.172 65.6969 584.576C65.608 585.392 65.3515 586.438 65.0454 587.498C64.7374 588.564 64.3712 589.671 64.0525 590.615C63.9866 590.81 63.9231 590.997 63.8627 591.176C63.6272 591.87 63.4387 592.426 63.3427 592.762C63.1011 593.608 62.7936 595.265 62.4787 596.981L62.4432 597.174C62.1443 598.804 61.8418 600.454 61.595 601.379C61.5151 601.678 61.3932 602.116 61.2427 602.656C60.8706 603.99 60.3242 605.949 59.8083 607.997C59.2019 610.404 58.6511 612.883 58.4844 614.55C58.2963 616.431 58.2508 618.103 58.7207 619.356C58.9499 619.967 59.2987 620.468 59.8131 620.848C60.3306 621.23 61.0469 621.511 62.0453 621.628C62.8718 621.726 63.6844 621.294 64.4917 620.395C65.2947 619.5 66.0157 618.222 66.6408 616.841C67.2629 615.466 67.776 614.02 68.1741 612.81C68.3432 612.297 68.4947 611.815 68.6252 611.399C68.7949 610.859 68.9291 610.433 69.0202 610.195C69.3263 609.4 70.571 605.636 71.7921 601.832C73.0163 598.018 74.1923 594.239 74.373 593.395C74.5698 592.477 75.3975 590.064 76.3312 587.574C77.2689 585.074 78.3393 582.427 79.0397 581.026C79.6986 579.708 80.6817 576.683 81.6479 573.119C82.6182 569.541 83.5574 565.473 84.119 562.166C84.4022 560.499 84.7636 558.778 85.1306 557.049L85.1947 556.747C85.5414 555.113 85.8895 553.474 86.1823 551.849C86.8051 548.393 87.1677 545.051 86.7419 542.071C86.6998 541.776 86.6585 541.489 86.6182 541.209C85.824 535.692 85.4334 532.978 87.2754 528.558C87.9727 526.884 88.712 524.982 89.4564 523.068C90.6918 519.89 91.9413 516.677 93.0366 514.408C93.115 514.245 93.2023 514.063 93.2993 513.86C95.3799 509.513 101.91 495.867 120.089 471.947C139.051 446.997 151.013 418.941 154.246 402.28C156.845 388.884 158.995 376.704 159.744 372.291C159.754 372.231 159.775 372.174 159.806 372.121C171.115 352.936 179.732 336.871 184.776 318.989C184.836 318.777 185.027 318.629 185.247 318.625C185.468 318.621 185.665 318.761 185.733 318.971C187.049 323.024 189.208 328.638 191.419 334.388C191.825 335.442 192.232 336.501 192.636 337.555C195.236 344.342 197.713 350.968 198.722 355.004C199.721 359.001 200.34 361.102 200.955 362.73C201.416 363.952 201.874 364.908 202.499 366.213C202.708 366.649 202.936 367.124 203.189 367.662L203.377 368.06C205.309 372.164 207.241 376.264 207.735 381.326C207.838 382.383 208.016 383.724 208.237 385.306C208.294 385.715 208.353 386.139 208.415 386.578C209.258 392.581 210.487 401.334 210.487 410.5C210.487 416.675 209.345 422.413 208.234 428.003L208.196 428.191C207.07 433.855 205.988 439.365 206.112 445.114C206.192 448.854 206.299 451.908 206.406 454.479C206.479 456.246 206.554 457.789 206.62 459.172C206.757 462.017 206.862 464.188 206.862 466.25C206.862 467.453 206.53 468.889 206.025 470.591C205.727 471.597 205.359 472.724 204.952 473.972C204.67 474.837 204.368 475.761 204.057 476.744C202.531 481.571 200.728 487.979 199.608 496.565C198.747 503.164 197.904 508.029 197.15 512.113C196.972 513.074 196.8 513.992 196.633 514.877C196.092 517.756 195.614 520.299 195.227 522.947C194.914 525.085 194.662 527.289 194.486 529.785C194.485 529.8 194.483 529.815 194.48 529.83C191.609 547.584 185.824 588.473 185.625 610.13C185.447 629.404 186.531 651.365 187.264 666.2C187.562 672.239 187.802 677.098 187.875 680.113C188.124 690.462 189.496 704.795 192.983 717.745C193.314 718.975 193.671 720.223 194.047 721.482C194.942 724.482 195.94 727.545 196.94 730.592L197.178 731.318C198.097 734.119 199.011 736.902 199.835 739.598C201.623 745.444 203.01 750.932 203.125 755.362C203.243 759.931 202.554 762.847 201.774 766.144C201.72 766.372 201.666 766.601 201.612 766.833C200.773 770.405 199.874 774.617 199.75 782.008C199.5 796.863 200.374 812.097 200.624 816.094C200.642 816.39 200.613 816.843 200.554 817.406C200.494 817.979 200.399 818.699 200.276 819.546C200.028 821.241 199.664 823.464 199.225 826.079C199.062 827.051 198.889 828.077 198.708 829.152C197.913 833.862 196.963 839.493 196.041 845.482C193.774 860.21 191.691 877.029 192.498 887.587C193.894 905.84 198.986 937.866 202.214 958.173C202.74 961.479 203.216 964.473 203.619 967.048C204.042 969.75 204.533 972.766 205.058 975.996C206.318 983.735 207.777 992.703 208.98 1001.53C210.682 1014.02 211.878 1026.29 211.248 1034.41C210.623 1042.48 210.185 1046.77 209.903 1049.49L209.882 1049.7C209.616 1052.27 209.5 1053.39 209.5 1055.12C209.5 1056.77 209.872 1058.82 210.282 1061.08L210.367 1061.55C210.803 1063.97 211.25 1066.57 211.25 1069C211.25 1070.79 211.339 1072.4 211.417 1073.79C211.441 1074.23 211.465 1074.66 211.484 1075.05C211.523 1075.88 211.543 1076.61 211.513 1077.23C211.483 1077.85 211.401 1078.4 211.205 1078.83C210.937 1079.42 210.518 1080.01 210.072 1080.65C209.957 1080.81 209.84 1080.97 209.724 1081.14C209.14 1081.99 208.506 1082.99 207.963 1084.31C207.531 1085.37 207.352 1086.34 207.174 1087.3C207.129 1087.54 207.085 1087.78 207.037 1088.02C206.797 1089.22 206.464 1090.41 205.511 1091.57C205.013 1092.17 204.149 1092.85 203.135 1093.61C202.9 1093.78 202.654 1093.97 202.399 1094.15C199.447 1096.34 195.314 1099.41 192.554 1104.01C190.531 1107.38 189.582 1110.75 189.23 1113.56C188.877 1116.39 189.129 1118.62 189.477 1119.72C189.655 1120.29 189.825 1120.64 189.97 1120.86C190.111 1121.08 190.236 1121.19 190.351 1121.29C190.448 1121.37 190.658 1121.52 190.795 1121.74C190.948 1121.98 191 1122.27 191 1122.62C191 1123.14 191.243 1124.01 191.731 1124.76C192.218 1125.5 192.866 1126 193.625 1126C194.6 1126 195.33 1125.91 195.816 1125.77C196.059 1125.7 196.219 1125.62 196.313 1125.56C196.366 1125.52 196.387 1125.5 196.393 1125.49C196.457 1125.26 196.675 1125.11 196.913 1125.13C197.156 1125.15 197.351 1125.34 197.373 1125.58C197.453 1126.46 197.628 1127.24 197.922 1127.81C198.21 1128.38 198.583 1128.69 199.071 1128.76C200.341 1128.94 201.482 1128.9 202.343 1128.65C203.2 1128.39 203.713 1127.95 203.897 1127.35C203.965 1127.13 204.177 1126.99 204.408 1127C204.64 1127.02 204.83 1127.19 204.868 1127.42C205.011 1128.28 205.329 1129.04 205.882 1129.59C206.425 1130.12 207.245 1130.5 208.5 1130.5C209.718 1130.5 210.545 1130.11 211.116 1129.55C211.698 1128.98 212.051 1128.2 212.239 1127.39C212.298 1127.13 212.546 1126.96 212.805 1127.01C213.065 1127.05 213.248 1127.28 213.224 1127.55C213.131 1128.57 213.304 1130.11 214.099 1131.37C214.872 1132.6 216.265 1133.62 218.75 1133.62C220.327 1133.62 221.403 1133.26 222.149 1132.75C222.896 1132.24 223.354 1131.56 223.647 1130.84C223.942 1130.12 224.064 1129.39 224.143 1128.79C224.154 1128.7 224.165 1128.61 224.175 1128.53C224.2 1128.33 224.222 1128.15 224.247 1128.01C224.265 1127.91 224.29 1127.79 224.328 1127.69C224.356 1127.61 224.437 1127.41 224.651 1127.3C225.003 1127.13 225.499 1127.06 225.906 1127.06C226.118 1127.06 226.334 1127.08 226.525 1127.12C226.691 1127.16 226.932 1127.23 227.103 1127.4C227.225 1127.52 227.261 1127.67 227.274 1127.72C227.291 1127.8 227.299 1127.88 227.303 1127.95C227.31 1128.1 227.307 1128.27 227.302 1128.46C227.292 1128.84 227.274 1129.32 227.296 1129.84C227.342 1130.9 227.558 1131.98 228.228 1132.65C229 1133.42 229.939 1134.12 231.294 1134.61C232.654 1135.1 234.46 1135.37 236.975 1135.25C243.19 1134.95 246.904 1131.31 249.132 1127.54C251.04 1124.31 251.826 1121.05 252.144 1119.73C252.199 1119.5 252.24 1119.33 252.271 1119.23C252.323 1119.06 252.41 1118.83 252.516 1118.56C253.229 1116.71 254.782 1112.68 252.065 1107.87C251.632 1107.11 251.236 1106.43 250.878 1105.81C250.278 1104.78 249.788 1103.94 249.427 1103.21C249.134 1102.62 248.912 1102.08 248.773 1101.54C248.414 1100.14 248.652 1098.86 249.41 1096.94C249.823 1095.89 250.314 1094.85 250.812 1093.8L250.941 1093.53C251.398 1092.57 251.857 1091.61 252.273 1090.62C253.183 1088.46 253.875 1086.22 253.875 1083.75C253.875 1081.24 253.54 1079.82 253.221 1078.65C253.189 1078.53 253.156 1078.41 253.124 1078.3C252.834 1077.25 252.566 1076.29 252.625 1074.85C252.654 1074.15 252.729 1073.01 252.823 1071.57C253.138 1066.76 253.663 1058.7 253.376 1053.53C253.285 1051.9 252.836 1049.85 252.202 1047.45C251.886 1046.25 251.526 1044.97 251.146 1043.62C250.766 1042.26 250.365 1040.84 249.97 1039.35C248.388 1033.4 246.874 1026.44 247 1019.12C247.251 1004.58 251.381 970.902 258.774 948.096C266.12 925.437 265.749 906.262 264.376 889.29C263.875 883.094 262.491 876.29 261.078 869.34C260.56 866.796 260.039 864.232 259.555 861.671C257.759 852.156 256.489 842.697 258.009 834.657C259.516 826.681 261.714 820.183 263.683 814.477L263.91 813.823C265.789 808.383 267.411 803.69 268.004 799.061C268.625 794.22 268.781 786.347 268.922 779.178L268.923 779.133C268.993 775.574 269.059 772.193 269.178 769.466C269.238 768.098 269.311 766.888 269.405 765.899C269.498 764.921 269.615 764.126 269.771 763.606C270.075 762.593 270.569 760.135 271.138 756.913C272.603 748.62 274.517 735.524 274.876 729.968C275.048 727.306 276.025 722.08 277.327 715.896C278.632 709.699 280.273 702.497 281.787 695.855L281.788 695.848L282.092 694.514C283.426 688.658 284.633 683.336 285.385 679.65C285.608 678.559 285.857 677.364 286.126 676.072C288.883 662.836 293.738 639.531 293.625 616.127V603.034C293.625 602.891 293.686 602.754 293.794 602.659C293.901 602.565 294.044 602.52 294.187 602.538C295.3 602.677 296.486 602.75 297.75 602.75C299.013 602.75 300.199 602.677 301.313 602.538C301.455 602.52 301.598 602.565 301.706 602.659C301.813 602.754 301.875 602.891 301.875 603.034V616.127C301.761 639.531 306.617 662.836 309.374 676.072C309.643 677.364 309.892 678.559 310.115 679.65C310.867 683.336 312.073 688.658 313.407 694.514L313.711 695.848L313.713 695.855C315.226 702.497 316.867 709.699 318.172 715.896C319.475 722.08 320.452 727.306 320.624 729.968C320.982 735.524 322.897 748.62 324.361 756.913C324.93 760.135 325.425 762.593 325.729 763.606C325.885 764.126 326.001 764.921 326.095 765.899C326.189 766.888 326.262 768.098 326.322 769.466C326.441 772.193 326.507 775.574 326.577 779.133L326.578 779.178C326.719 786.347 326.875 794.22 327.496 799.061C328.089 803.69 329.711 808.383 331.59 813.823L331.816 814.477C333.786 820.183 335.984 826.681 337.491 834.657C339.01 842.697 337.741 852.156 335.944 861.671C335.461 864.232 334.939 866.796 334.422 869.34C333.008 876.29 331.624 883.094 331.123 889.29C329.75 906.262 329.38 925.437 336.725 948.096C344.119 970.902 348.249 1004.58 348.5 1019.12C348.626 1026.44 347.112 1033.4 345.53 1039.35C345.134 1040.84 344.734 1042.26 344.354 1043.62L344.329 1043.7C343.958 1045.03 343.607 1046.28 343.298 1047.45C342.663 1049.85 342.215 1051.9 342.124 1053.53C341.836 1058.7 342.362 1066.76 342.677 1071.57C342.77 1073.01 342.845 1074.15 342.874 1074.85C342.934 1076.29 342.666 1077.25 342.375 1078.3C342.343 1078.41 342.311 1078.53 342.279 1078.65C341.959 1079.82 341.625 1081.24 341.625 1083.75C341.625 1086.22 342.316 1088.46 343.226 1090.62C343.643 1091.61 344.101 1092.57 344.559 1093.53L344.688 1093.8C345.185 1094.85 345.677 1095.89 346.09 1096.94C346.848 1098.86 347.086 1100.14 346.726 1101.54C346.588 1102.08 346.366 1102.62 346.073 1103.21C345.711 1103.94 345.222 1104.78 344.621 1105.81C344.264 1106.43 343.867 1107.11 343.435 1107.87C340.717 1112.68 342.271 1116.71 342.984 1118.56C343.089 1118.83 343.177 1119.06 343.229 1119.23C343.259 1119.33 343.301 1119.5 343.356 1119.73C343.674 1121.05 344.46 1124.31 346.368 1127.54C348.596 1131.31 352.309 1134.95 358.524 1135.25C361.039 1135.37 362.846 1135.1 364.206 1134.61C365.56 1134.12 366.5 1133.42 367.271 1132.65C367.942 1131.98 368.157 1130.9 368.203 1129.84C368.223 1129.39 368.211 1128.97 368.201 1128.61L368.197 1128.46C368.192 1128.27 368.189 1128.1 368.197 1127.95C368.201 1127.88 368.209 1127.8 368.226 1127.72C368.239 1127.67 368.275 1127.52 368.396 1127.4C368.568 1127.23 368.809 1127.16 368.975 1127.12C369.166 1127.08 369.382 1127.06 369.594 1127.06C370 1127.06 370.497 1127.13 370.848 1127.3C371.063 1127.41 371.144 1127.61 371.172 1127.69C371.21 1127.79 371.234 1127.91 371.252 1128.01C371.288 1128.21 371.319 1128.5 371.357 1128.79C371.436 1129.39 371.558 1130.12 371.853 1130.84C372.146 1131.56 372.604 1132.24 373.35 1132.75C374.096 1133.26 375.172 1133.62 376.75 1133.62C379.235 1133.62 380.628 1132.6 381.401 1131.37C382.196 1130.11 382.369 1128.57 382.275 1127.55C382.252 1127.28 382.435 1127.05 382.694 1127.01C382.954 1126.96 383.201 1127.13 383.26 1127.39C383.449 1128.2 383.802 1128.98 384.384 1129.55C384.955 1130.11 385.782 1130.5 387 1130.5C388.233 1130.5 389.051 1130.12 389.599 1129.58C390.157 1129.03 390.482 1128.26 390.632 1127.41C390.673 1127.19 390.863 1127.02 391.094 1127C391.324 1126.99 391.535 1127.13 391.603 1127.35C391.786 1127.95 392.3 1128.39 393.157 1128.65C394.018 1128.9 395.159 1128.94 396.429 1128.76C396.893 1128.69 397.266 1128.38 397.561 1127.8C397.859 1127.22 398.041 1126.43 398.127 1125.57C398.152 1125.33 398.347 1125.14 398.589 1125.13C398.827 1125.11 399.043 1125.26 399.106 1125.49C399.113 1125.5 399.133 1125.52 399.186 1125.56C399.281 1125.62 399.441 1125.7 399.684 1125.77C400.169 1125.91 400.9 1126 401.875 1126C402.634 1126 403.282 1125.5 403.769 1124.76C404.256 1124.01 404.5 1123.14 404.5 1122.62C404.5 1122.27 404.552 1121.98 404.705 1121.74C404.822 1121.55 404.992 1121.41 405.1 1121.33C405.118 1121.31 405.134 1121.3 405.148 1121.29C405.264 1121.19 405.389 1121.08 405.529 1120.86C405.674 1120.64 405.845 1120.29 406.023 1119.72C406.37 1118.62 406.623 1116.39 406.269 1113.56C405.917 1110.75 404.968 1107.38 402.946 1104.01C400.186 1099.41 396.052 1096.34 393.1 1094.15C392.846 1093.97 392.6 1093.78 392.365 1093.61C391.351 1092.85 390.487 1092.17 389.989 1091.57C389.035 1090.41 388.703 1089.22 388.463 1088.02C388.415 1087.78 388.37 1087.54 388.326 1087.3C388.147 1086.34 387.969 1085.37 387.537 1084.31C386.994 1082.99 386.36 1081.99 385.776 1081.14C385.659 1080.97 385.543 1080.81 385.428 1080.65C384.981 1080.01 384.562 1079.42 384.295 1078.83C384.098 1078.4 384.017 1077.85 383.987 1077.23C383.956 1076.61 383.977 1075.88 384.016 1075.05C384.035 1074.66 384.058 1074.23 384.083 1073.79C384.161 1072.4 384.25 1070.79 384.25 1069C384.25 1066.57 384.696 1063.97 385.133 1061.55L385.218 1061.08C385.628 1058.82 386 1056.77 386 1055.12C386 1053.39 385.884 1052.27 385.618 1049.7L385.596 1049.49C385.315 1046.77 384.877 1042.48 384.251 1034.41C383.622 1026.29 384.817 1014.02 386.52 1001.53C387.722 992.703 389.182 983.736 390.441 975.997C390.967 972.767 391.458 969.75 391.881 967.048C392.284 964.473 392.76 961.478 393.285 958.172C396.514 937.865 401.605 905.84 403.001 887.587C403.809 877.029 401.726 860.21 399.459 845.482C398.537 839.495 397.587 833.866 396.793 829.156C396.611 828.08 396.438 827.052 396.274 826.079C395.836 823.464 395.471 821.241 395.224 819.546C395.1 818.699 395.006 817.979 394.945 817.406C394.886 816.843 394.857 816.39 394.876 816.094C395.126 812.097 396 796.863 395.75 782.008C395.626 774.617 394.727 770.405 393.888 766.833C393.834 766.601 393.779 766.372 393.726 766.144C392.946 762.847 392.256 759.931 392.375 755.362C392.49 750.932 393.877 745.444 395.665 739.598C396.489 736.903 397.402 734.12 398.321 731.319L398.56 730.592C399.56 727.545 400.558 724.482 401.453 721.482C401.829 720.223 402.186 718.975 402.517 717.745C406.004 704.795 407.376 690.462 407.625 680.113C407.698 677.098 407.938 672.24 408.236 666.2C408.968 651.365 410.053 629.404 409.875 610.13C409.675 588.473 403.891 547.584 401.019 529.83C401.017 529.815 401.015 529.8 401.014 529.785C400.838 527.289 400.585 525.085 400.273 522.947C399.886 520.299 399.408 517.756 398.866 514.877C398.7 513.992 398.527 513.074 398.35 512.113C397.595 508.029 396.753 503.164 395.892 496.565C394.772 487.979 392.968 481.571 391.442 476.744C391.131 475.761 390.83 474.837 390.548 473.972C390.14 472.723 389.773 471.597 389.475 470.591C388.97 468.889 388.638 467.453 388.638 466.25C388.638 464.189 388.742 462.017 388.879 459.173C388.946 457.789 389.02 456.246 389.094 454.479C389.201 451.908 389.307 448.854 389.388 445.114C389.512 439.365 388.43 433.855 387.304 428.191L387.266 428.003C386.154 422.413 385.013 416.675 385.013 410.5C385.013 401.334 386.242 392.581 387.085 386.579C387.146 386.14 387.206 385.715 387.263 385.306C387.483 383.724 387.662 382.383 387.765 381.326C388.259 376.264 390.19 372.164 392.123 368.06L392.136 368.032L392.31 367.662C392.563 367.124 392.791 366.649 393.001 366.212C393.626 364.908 394.084 363.952 394.545 362.73C395.159 361.102 395.779 359.001 396.778 355.004C397.787 350.968 400.264 344.342 402.864 337.555C403.268 336.501 403.675 335.442 404.081 334.388C406.292 328.638 408.451 323.024 409.767 318.971C409.835 318.761 410.032 318.621 410.252 318.625C410.473 318.629 410.664 318.777 410.724 318.989C415.767 336.871 424.385 352.936 435.694 372.121C435.712 372.152 435.726 372.184 435.737 372.218C435.745 372.242 435.751 372.266 435.756 372.291C436.505 376.704 438.654 388.884 441.254 402.28C444.487 418.941 456.449 446.997 475.411 471.947C493.589 495.867 500.12 509.513 502.2 513.86C502.297 514.063 502.385 514.245 502.463 514.408C503.558 516.677 504.808 519.891 506.043 523.068C506.788 524.983 507.527 526.884 508.224 528.558C510.066 532.978 509.676 535.692 508.882 541.209C508.841 541.489 508.8 541.776 508.758 542.071C508.332 545.051 508.695 548.393 509.317 551.849C509.61 553.473 509.958 555.113 510.305 556.745L510.369 557.049C510.736 558.778 511.098 560.499 511.381 562.166C511.942 565.473 512.882 569.541 513.852 573.119C514.818 576.683 515.801 579.708 516.46 581.026C517.16 582.427 518.231 585.074 519.168 587.574C520.102 590.064 520.93 592.477 521.127 593.395C521.307 594.239 522.483 598.018 523.708 601.832C524.929 605.636 526.173 609.4 526.479 610.195C526.571 610.432 526.705 610.859 526.874 611.398C527.005 611.814 527.156 612.296 527.326 612.81C527.724 614.02 528.237 615.466 528.859 616.841C529.484 618.222 530.205 619.5 531.008 620.395C531.815 621.294 532.628 621.726 533.454 621.628C534.453 621.511 535.169 621.23 535.687 620.848C536.201 620.468 536.55 619.967 536.779 619.356C537.249 618.103 537.203 616.431 537.015 614.55C536.849 612.883 536.298 610.404 535.691 607.997C535.176 605.949 534.629 603.99 534.257 602.655C534.107 602.116 533.985 601.678 533.905 601.379C533.658 600.453 533.355 598.8 533.056 597.169L533.021 596.981C532.706 595.265 532.399 593.608 532.157 592.762C532.061 592.427 531.873 591.871 531.638 591.178C531.577 590.999 531.513 590.811 531.447 590.615C531.129 589.671 530.762 588.564 530.454 587.498C530.148 586.438 529.892 585.392 529.803 584.576C529.759 584.172 529.751 583.783 529.82 583.464C529.887 583.151 530.066 582.763 530.506 582.643C530.853 582.548 531.172 582.646 531.429 582.815C531.675 582.978 531.888 583.221 532.073 583.487C532.446 584.022 532.795 584.778 533.119 585.598C533.536 586.657 533.941 587.908 534.306 589.036C534.504 589.647 534.69 590.221 534.86 590.711C535.872 593.62 537.628 601.15 538.127 603.522C538.372 604.684 539.145 607.314 539.961 610.077L540.057 610.403C540.838 613.044 541.635 615.742 541.999 617.258C542.08 617.597 542.18 618.073 542.301 618.654C542.756 620.841 543.521 624.51 544.793 627.886C545.598 630.021 546.587 631.986 547.794 633.357C548.994 634.719 550.359 635.446 551.953 635.254C553.574 635.058 554.542 634.199 555.104 632.923C555.683 631.61 555.832 629.845 555.717 627.905C555.516 624.532 554.534 620.827 553.907 618.463C553.813 618.11 553.728 617.787 553.654 617.5C553.084 615.284 552.768 613.261 552.44 611.026C552.41 610.822 552.38 610.615 552.35 610.407C552.047 608.335 551.713 606.049 551.148 603.223C550.527 600.119 549.25 595.323 548.079 591.199C547.494 589.139 546.936 587.252 546.502 585.834C546.284 585.125 546.098 584.534 545.956 584.099C545.884 583.882 545.824 583.705 545.777 583.573C545.753 583.507 545.733 583.454 545.718 583.413C545.71 583.393 545.703 583.378 545.698 583.366C545.693 583.353 545.691 583.349 545.691 583.349C545.527 583.021 545.535 582.679 545.676 582.387C545.808 582.111 546.042 581.911 546.289 581.787C546.769 581.547 547.487 581.517 547.991 582.021C548.123 582.153 548.236 582.334 548.336 582.519C548.389 582.618 548.443 582.728 548.498 582.847C548.551 582.961 548.604 583.082 548.658 583.211C548.879 583.741 549.126 584.421 549.392 585.197C549.556 585.673 549.728 586.189 549.908 586.732C550.021 587.075 550.138 587.429 550.257 587.791C550.566 588.726 550.893 589.716 551.236 590.712C551.933 592.742 553.315 598.334 554.577 603.634C555.295 606.645 555.975 609.568 556.476 611.719C556.861 613.372 557.139 614.57 557.248 615.004C557.503 616.023 557.913 618.231 558.333 620.503C558.756 622.79 559.191 625.152 559.5 626.514C560.115 629.217 561.597 632.67 562.072 633.502C562.54 634.321 564.033 636.5 567.263 636.5C568.054 636.5 568.681 636.311 569.186 635.976C569.693 635.64 570.108 635.135 570.438 634.454C571.106 633.075 571.388 631.044 571.388 628.5C571.388 625.99 570.928 623.124 570.367 620.349C570.119 619.127 569.85 617.91 569.593 616.754C569.275 615.32 568.978 613.979 568.771 612.839C568.419 610.904 568.258 609.431 568.099 607.98L568.063 607.648C567.891 606.091 567.706 604.514 567.273 602.348C566.839 600.18 565.688 595.792 564.561 591.598C564.214 590.308 563.87 589.035 563.55 587.854C562.835 585.214 562.244 583.029 562.026 582.116C561.723 580.843 561.236 579.56 560.789 578.545C560.339 577.52 559.947 576.803 559.847 576.652C559.648 576.355 559.722 576.014 559.795 575.819C559.879 575.597 560.028 575.381 560.215 575.217C560.396 575.059 560.673 574.901 561.005 574.927C561.366 574.956 561.642 575.186 561.822 575.502C562.096 575.981 562.453 576.832 563.013 578.342C563.578 579.863 564.36 582.087 565.485 585.336C566.099 587.109 566.767 589.175 567.424 591.272C568.487 594.663 569.517 598.118 570.249 600.575C570.736 602.211 571.091 603.405 571.237 603.842C571.423 604.399 571.691 605.699 571.967 607.157C572.233 608.557 572.514 610.147 572.749 611.464C572.987 612.797 573.171 613.823 573.248 614.129C573.258 614.167 573.269 614.216 573.283 614.274C573.453 614.979 573.951 617.043 575.042 618.973C576.225 621.066 578.022 622.864 580.742 622.75C582.104 622.694 582.987 622.172 583.582 621.411C584.193 620.628 584.53 619.55 584.689 618.341C584.931 616.5 584.746 614.529 584.612 613.101C584.568 612.635 584.53 612.227 584.513 611.9C584.391 609.443 583.15 602.486 582.147 597.219C581.149 591.983 579.152 583.62 578.028 579.121C577.898 578.604 577.746 577.991 577.576 577.304C576.257 571.984 573.832 562.209 572.292 557.919C570.9 554.04 568.141 547.748 566.932 545.081C566.862 544.927 566.876 544.747 566.968 544.604C567.06 544.461 567.218 544.375 567.388 544.375C568.368 544.375 569.821 544.816 571.184 545.364C572.563 545.919 573.944 546.623 574.797 547.214C575.572 547.75 576.139 548.446 576.746 549.19C576.832 549.296 576.919 549.403 577.008 549.51C577.73 550.386 578.607 551.383 580.063 552.475C581.491 553.546 583.51 554.395 585.65 554.79C587.792 555.184 590.005 555.116 591.832 554.409C593.574 553.734 594.316 552.409 594.469 551.068C594.628 549.686 594.155 548.349 593.534 547.729C592.809 547.003 591.926 546.302 591.064 545.628L590.871 545.477C590.09 544.868 589.329 544.273 588.784 543.729C588.146 543.09 587.928 542.541 587.73 541.999L587.702 541.92C587.526 541.435 587.351 540.951 586.863 540.3C585.774 538.849 583.561 536.754 581.829 535.393C580.993 534.736 579.655 533.974 578.26 533.221C577.852 533.002 577.44 532.783 577.036 532.568C576.08 532.061 575.174 531.58 574.506 531.179C573.509 530.581 572.658 529.758 571.862 528.963C571.783 528.884 571.704 528.804 571.626 528.726C570.905 528.002 570.224 527.319 569.472 526.782C567.752 525.553 563.41 522.947 558.945 521.087L558.944 521.086C557.642 520.54 554.838 519.394 553.869 519.104C553.233 518.913 551.282 518.284 549.343 517.511C548.375 517.125 547.399 516.7 546.59 516.272C546.185 516.058 545.814 515.84 545.503 515.621C545.198 515.406 544.924 515.174 544.738 514.925C544.673 514.838 544.6 514.714 544.521 514.565C544.475 514.476 544.426 514.378 544.376 514.275C544.236 513.984 544.066 513.606 543.87 513.153C543.478 512.245 542.977 511.019 542.396 509.553C541.234 506.621 539.748 502.715 538.169 498.439C535.012 489.889 531.477 479.848 529.41 473.147C527.518 467.012 525.89 458.532 524.006 448.721C523.826 447.785 523.644 446.836 523.459 445.876C521.334 434.845 518.838 422.3 515.281 409.509C508.758 386.048 502.766 374.992 497.577 365.416C497.111 364.555 496.651 363.706 496.197 362.861C494.956 360.548 493.878 358.652 492.927 356.981C489.685 351.28 487.931 348.195 486.273 340.1C485.218 334.949 482.979 328.072 480.681 321.429C479.952 319.322 479.217 317.237 478.513 315.241C477.005 310.963 475.639 307.091 474.784 304.27C473.8 301.023 471.365 296.001 468.697 291.011C466.035 286.033 463.165 281.129 461.336 278.136C461.294 278.067 461.269 277.989 461.264 277.909C461.055 274.816 460.638 266.438 460.638 257.625C460.638 246.628 459.631 225.519 448.975 209.907C443.987 202.599 439.913 198.296 435.546 195.191C431.171 192.079 426.477 190.15 420.188 187.618C419.269 187.248 418.315 186.865 417.325 186.463C410.125 183.546 405.261 182.679 400.421 181.932C400.06 181.876 399.699 181.821 399.337 181.766C394.83 181.078 390.181 180.369 383.6 178.098C369.455 173.216 357.548 167.829 350.636 163.807C347.198 161.806 343.861 159.762 341.349 157.834C340.094 156.871 339.027 155.924 338.255 155.015C337.491 154.116 336.965 153.197 336.89 152.292C336.821 151.469 336.79 148.831 336.78 145.376C336.762 138.401 336.832 127.965 336.888 121.87C336.889 121.76 336.926 121.653 336.995 121.566C337.53 120.886 337.991 119.861 338.384 118.613C338.775 117.374 339.087 115.956 339.344 114.521C339.6 113.088 339.8 111.648 339.966 110.367C340.01 110.034 340.051 109.712 340.09 109.402C340.202 108.526 340.301 107.755 340.394 107.171C340.605 105.852 340.703 104.624 340.776 103.704C340.789 103.551 340.8 103.406 340.811 103.271C340.849 102.824 340.886 102.421 340.952 102.191C340.968 102.134 340.999 102.039 341.059 101.95C341.118 101.865 341.301 101.659 341.605 101.713C341.832 101.752 341.951 101.919 341.982 101.963C342.031 102.033 342.068 102.11 342.097 102.178C342.114 102.217 342.131 102.257 342.148 102.297C342.328 102.721 342.517 103.169 342.939 103.579C343.391 104.018 344.156 104.452 345.575 104.629C346.093 104.694 346.649 104.437 347.271 103.787C347.888 103.142 348.491 102.191 349.087 101.077C349.631 100.06 350.153 98.9374 350.667 97.8331L350.808 97.5311C351.362 96.3398 351.911 95.1773 352.456 94.2471C353.476 92.5084 354.369 89.6067 355.039 86.3675C355.706 83.1423 356.139 79.6378 356.263 76.7287C356.32 75.4052 356.225 74.2913 356.021 73.357C355.681 71.8082 355.038 70.7504 354.259 70.0359C353.478 69.3192 352.533 68.9209 351.548 68.7419C350.686 68.5851 349.865 69.014 349.137 69.7488C348.415 70.4773 347.872 71.4253 347.598 72.0703C347.502 72.2972 347.255 72.4201 347.016 72.3599C346.777 72.2996 346.617 72.0743 346.64 71.8289C347.035 67.57 347.471 60.6912 347.497 53.9075C347.523 47.1006 347.134 40.4674 345.912 36.6526C344.37 31.8432 340.058 22.9162 332.258 15.1992C324.467 7.49234 313.206 1 297.737 1C282.267 1 271.013 7.4923 263.229 15.1991ZM370.235 1128.04C370.235 1128.04 370.235 1128.04 370.236 1128.04C370.229 1128.03 370.23 1128.02 370.235 1128.04Z" fill="#E8D1C2"/>
        <path d="M285.625 73.25C287.25 73.25 287.125 71.875 286.375 71.375C286.031 71.1461 284.323 69.3529 281.155 68.5998C280.252 68.3852 279.275 68.25 278.25 68.25C277.23 68.25 276.263 68.4272 275.375 68.7085C273.041 69.4476 270.504 71.6549 269.75 72.5C270.666 73.5417 273.075 75.625 277.375 75.625C282.75 75.625 283.496 73.25 285.625 73.25Z" fill="white"/>
        <path d="M309.875 73.25C308.25 73.25 308.375 71.875 309.125 71.375C309.468 71.1461 311.177 69.3529 314.345 68.5998C315.248 68.3852 316.224 68.25 317.25 68.25C318.27 68.25 319.237 68.4272 320.125 68.7085C322.459 69.4476 324.995 71.6549 325.75 72.5C324.833 73.5417 322.425 75.625 318.125 75.625C312.75 75.625 312.003 73.25 309.875 73.25Z" fill="white"/>
        <path d="M292.75 436.375C292.75 437.75 294.125 439.625 297.75 439.625C301.375 439.625 302.75 437.75 302.75 436.375C302.75 435 301.5 433.125 297.75 433.125C294 433.125 292.75 435 292.75 436.375Z" fill="#E4C5B0"/>
        <path d="M235.25 282.75C237.635 284.738 236.25 287.218 234.125 288.5C232 289.782 228.375 290 226.25 288.5C224.057 286.952 224.348 284.967 225.875 283.25C227.875 281 232.25 280.25 235.25 282.75Z" fill="#E4C5B0"/>
        <path d="M360.25 282.75C357.864 284.738 359.25 287.218 361.375 288.5C363.5 289.782 367.125 290 369.25 288.5C371.442 286.952 371.151 284.967 369.625 283.25C367.625 281 363.25 280.25 360.25 282.75Z" fill="#E4C5B0"/>
        <path d="M258.219 145.375C258.21 148.842 258.178 151.453 258.112 152.25C257.862 155.25 251.487 159.375 244.612 163.375C237.737 167.375 225.862 172.75 211.737 177.625C197.612 182.5 192.487 180.125 177.987 186C176.997 186.401 176.045 186.784 175.125 187.154C162.563 192.212 156.128 194.95 146.112 209.625C135.362 225.375 134.362 246.625 134.362 257.625C134.362 266.425 133.945 274.792 133.737 277.875C130.07 283.875 122.237 297.525 120.237 304.125C117.737 312.375 110.862 329.625 108.737 340C106.612 350.375 104.362 352.375 98.8618 362.625C93.3618 372.875 86.8618 383.75 79.7368 409.375C72.6118 435 69.7368 459.625 65.6118 473C61.4868 486.375 51.4868 513.125 50.3618 514.625C49.2368 516.125 42.7368 518.25 41.4868 518.625C40.4868 518.925 37.6535 520.083 36.3618 520.625C31.8618 522.5 27.4868 525.125 25.7368 526.375C23.9868 527.625 22.6118 529.625 20.7368 530.75C18.8618 531.875 15.1118 533.625 13.3618 535C11.6118 536.375 9.3618 538.5 8.2368 540C7.1118 541.5 7.4868 542.25 6.3618 543.375C5.2368 544.5 3.1118 545.875 1.6118 547.375C0.111798 548.875 -0.388202 553.375 3.4868 554.875C7.3618 556.375 12.7368 555.125 15.7368 552.875C18.7368 550.625 19.3618 548.75 20.9868 547.625C22.6118 546.5 26.3618 544.875 28.1118 544.875M28.1118 544.875C29.5118 544.875 30.2785 545.042 30.4868 545.125C35.2871 546.833 46.6851 549.225 53.8748 545.125C61.0644 541.025 64.1951 538.75 64.8618 538.125M28.1118 544.875C26.9035 547.542 24.1368 553.85 22.7368 557.75C20.9868 562.625 18.1118 574.5 16.9868 579C15.8618 583.5 13.8618 591.875 12.8618 597.125C11.8618 602.375 10.6118 609.375 10.4868 611.875C10.3618 614.375 8.73682 623 14.7368 623.25C20.7368 623.5 22.4868 615.25 22.7368 614.25C22.9006 613.595 23.4934 610.044 24.0234 607.25M205.906 454.5C205.799 451.926 205.692 448.869 205.612 445.125C205.362 433.5 209.987 422.875 209.987 410.5C209.987 400.704 208.577 391.379 207.741 385.375C207.521 383.794 207.341 382.443 207.237 381.375C206.751 376.399 204.852 372.365 202.911 368.245L202.737 367.875C200.737 363.625 200.237 363.125 198.237 355.125C196.237 347.125 188.382 328.75 185.257 319.125M190.086 270.625C191.025 289.566 189.263 304.921 185.257 319.125C180.195 337.074 171.548 353.186 160.237 372.375C159.487 376.792 157.337 388.975 154.737 402.375C151.487 419.125 139.487 447.25 120.487 472.25C101.487 497.25 95.2368 511 93.4868 514.625C91.7368 518.25 89.6118 524.25 87.7368 528.75C85.8618 533.25 86.3618 535.875 87.2368 542C88.1118 548.125 85.7368 555.625 84.6118 562.25C84.0469 565.577 83.1036 569.661 82.1304 573.25C81.1656 576.808 80.1713 579.881 79.4868 581.25C78.1118 584 75.2368 591.75 74.8618 593.5C74.4868 595.25 70.1118 608.75 69.4868 610.375C68.8618 612 66.2368 622.625 61.9868 622.125C57.7368 621.625 57.6118 618.25 57.9868 614.5C58.1576 612.792 58.7172 610.281 59.3233 607.875M297.737 0.5C266.487 0.5 252.237 26.75 249.112 36.5C246.612 44.3 247.57 63.3333 248.362 71.875C247.778 70.5 246.062 67.85 243.862 68.25C241.748 68.6344 239.707 69.9792 238.991 73.25M205.906 454.5C206.132 459.919 206.362 463.199 206.362 466.25C206.362 470.75 201.362 479.25 199.112 496.5C197.393 509.676 195.748 515.924 194.732 522.875C194.418 525.024 194.164 527.241 193.987 529.75C191.116 547.5 185.325 588.425 185.125 610.125C184.875 637.25 187.125 669.75 187.375 680.125C187.625 690.5 189 704.875 192.5 717.875C192.832 719.11 193.191 720.362 193.567 721.625C197.156 733.654 202.399 746.664 202.625 755.375C202.875 765 199.5 767.125 199.25 782C199 796.875 199.875 812.125 200.125 816.125C200.375 820.125 190.375 866.375 192 887.625C193.625 908.875 200.25 948.75 203.125 967.125C206 985.5 212 1018.25 210.75 1034.38C209.5 1050.5 209 1051.5 209 1055.12C209 1058.75 210.75 1064.25 210.75 1069C210.75 1073.75 211.375 1077.25 210.75 1078.62C210.125 1080 208.625 1081.38 207.5 1084.12C206.375 1086.88 206.875 1089.12 205.125 1091.25C204.672 1091.8 203.861 1092.44 202.835 1093.21C199.892 1095.41 195.184 1098.65 192.125 1103.75C188 1110.62 188.25 1117.5 189 1119.88C189.75 1122.25 190.5 1121.38 190.5 1122.62C190.5 1123.88 191.625 1126.5 193.625 1126.5C195.625 1126.5 196.75 1126.12 196.875 1125.62M204.375 1127.5C203.875 1129.12 201.625 1129.62 199 1129.25C196.9 1128.95 196.708 1124.88 196.875 1122.88C196.791 1121.79 197 1119.18 198.5 1117.38M213.75 1118.75C213.15 1119.15 212.916 1123.17 212.875 1125.12C212.944 1125.77 212.926 1126.64 212.726 1127.5C212.323 1129.25 211.176 1131 208.5 1131C204.5 1131 204.083 1126.92 204.375 1124.88C204.458 1123.29 204.875 1119.85 205.875 1118.75M212.726 1127.5C212.526 1129.71 213.45 1134.12 218.75 1134.12C225.375 1134.12 224.375 1128 224.875 1127.75C225.375 1127.5 226.5 1127.5 226.75 1127.75M249.257 1101.42C249.384 1101.91 249.59 1102.42 249.875 1102.99C250.444 1104.14 251.325 1105.55 252.5 1107.62C255.75 1113.38 253.125 1118.12 252.75 1119.38C252.375 1120.62 249.875 1135.12 237 1135.75C231.875 1136 229.5 1134.62 227.875 1133C226.25 1131.38 227 1128 226.75 1127.75M226.75 1127.75C226.583 1125.29 226.75 1119.97 228.75 1118.38M271.631 757C273.095 748.705 275.014 735.586 275.375 730C275.713 724.762 279.248 709.248 282.276 695.959L282.58 694.625C283.913 688.771 285.121 683.443 285.875 679.75C288.375 667.5 294.25 641.875 294.125 616.125V603.034M294.125 603.034V602.941M294.125 603.034C295.26 603.176 296.467 603.25 297.75 603.25C299.032 603.25 300.239 603.176 301.375 603.034M205.013 221.125C199.883 226.75 189.625 239.7 189.625 246.5C189.625 255 187.993 279.625 196.375 289.75C209.987 306.193 223.75 309.25 239.125 309.25C259.349 309.25 261.5 308.5 267.5 307.25M243 402.375C243.125 393.5 241.75 372.375 245.625 365.25C249.5 358.125 265 340 297.75 340C330.5 340 346 358.125 349.875 365.25C353.75 372.375 352.375 393.5 352.5 402.375M207.741 385.375C208.744 390.167 213.975 402.775 226.875 414.875M205.906 454.5C206.222 461.5 220.017 464.25 226.875 464.75M175.125 187.154C188 182.751 204 184.625 221.875 189.125M253.125 194.75C258.916 194.917 271.925 195.575 277.625 196.875C284.75 198.5 286.125 197.75 280.25 189.125C278.041 185.75 273.375 178.175 272.375 174.875M258.219 145.375C258.238 138.403 258.167 127.97 258.112 121.875M258.219 145.375C258.354 154.458 258.075 173.625 255.875 177.625M117.25 375.5C118.25 379.292 120.075 387.4 119.375 389.5M119.375 389.5L117.875 394M119.375 389.5C124.275 388.4 131 385.125 133.75 383.625M194.732 522.875C196.406 513.375 204.875 493.125 210.75 491.875M193.567 721.625C197.875 735.059 208 750.625 217.25 759.375M282.58 694.625C285.244 660.825 278.886 632.208 275.375 622.125M271.631 757C271.063 760.213 270.564 762.703 270.25 763.75C269.125 767.5 269.75 789.375 268.5 799.125C267.25 808.875 261.5 818.875 258.5 834.75C255.5 850.625 263.5 872.25 264.875 889.25C266.25 906.25 266.625 925.5 259.25 948.25C251.875 971 247.75 1004.62 247.5 1019.12C247.25 1033.62 253.5 1046.75 253.875 1053.5C254.25 1060.25 253.25 1071.88 253.125 1074.88C253 1077.88 254.375 1078.62 254.375 1083.75C254.375 1088.88 251.5 1093 249.875 1097.12C249.131 1099.01 248.937 1100.17 249.257 1101.42M271.631 757C270.387 763.078 265.753 771.012 258.5 774.328M229.25 754.25C239.375 773 248.5 777.375 256 775.25C256.864 775.005 257.698 774.695 258.5 774.328M258.5 774.328C259.416 776.511 261.225 782.225 261.125 787.625M207.75 782C206.291 791.75 204.475 813.175 208.875 820.875C214.375 830.5 229.875 831.625 238.375 826.25M207.75 829C211.875 834.333 220.125 852.2 220.125 881C220.125 909.8 221.791 944.417 222.625 958.125M247.5 1047.5C245.75 1051 244.375 1058.88 247.5 1064M249.875 1102.99C249.648 1102.48 249.442 1101.95 249.257 1101.42M249.257 1101.42C247.508 1096.36 247.583 1090.47 248.375 1086.62M228.375 286.25C228.75 286.75 230.5 287.875 232.5 286.625M287.125 93.75C286.625 95.125 284.75 98 288.5 99.75M290.375 98.125C291.333 97.7917 293.375 97.625 294.875 99.125M296 100.875C296.5 101.175 297.375 101.25 297.75 101.25C298.125 101.25 299 101.175 299.5 100.875M280.5 115.25C285.375 114.75 287.875 113.875 291.125 113.5C294.375 113.125 295.875 114.25 296.375 114.25H299.125C299.625 114.25 301.125 113.125 304.375 113.5C307.625 113.875 310.125 114.75 315 115.25M285.375 112.125C286.625 111.625 290.75 108.125 293.75 108.375C296.75 108.625 296.75 108.875 297.75 108.875C298.75 108.875 298.75 108.625 301.75 108.375C304.75 108.125 308.875 111.625 310.125 112.125M290 119.125C292.375 119.75 296 119.75 297.75 119.75C299.5 119.75 303.125 119.75 305.5 119.125M296 125.25H299.5M249.125 82.5C249.125 84.5 247.388 85.25 247.875 87.25C248.362 89.25 251 91.375 251 92.5M243 84.625C242.75 83 245.125 81 246 79.625C246.424 78.9584 246.613 78.4974 246.695 78M246.75 76C246.75 76.9016 246.783 77.4714 246.695 78M246.695 78C246.964 78.7917 247.475 80.7 247.375 82M242.125 88.75C242.75 90.2917 244.275 93.725 245.375 95.125M238.991 73.25C238.775 74.2337 238.679 75.3916 238.737 76.75C238.987 82.625 240.487 90.875 242.612 94.5C244.737 98.125 246.987 105.5 249.987 105.125C252.987 104.75 253.487 103.25 253.862 102.375C254.237 101.5 254.112 104.125 254.612 107.25C255.112 110.375 255.487 118 258.862 122.875C262.237 127.75 268.912 134.059 275.5 138.375C283.75 143.78 289.875 145.375 297.75 145.375C305.625 145.375 311.75 143.78 320 138.375C326.588 134.059 333.263 127.75 336.638 122.875C340.013 118 340.388 110.375 340.888 107.25C341.388 104.125 341.263 101.5 341.638 102.375C342.013 103.25 342.513 104.75 345.513 105.125C348.513 105.5 350.763 98.125 352.888 94.5C355.013 90.875 356.513 82.625 356.763 76.75C356.82 75.3916 356.725 74.2337 356.509 73.25M238.991 73.25C241.481 66.875 245.375 71.625 246 73.5M64.8618 562.25C61.3618 561.125 54.3748 559.75 44.9868 560.125M24.0234 607.25C24.3026 605.779 24.5643 604.517 24.7368 604C25.101 602.907 26.7915 597.04 28.5524 591.422M24.0234 607.25C22.7368 605.25 20.9868 604 15.7368 604M28.5524 591.422C29.2091 589.326 29.8756 587.266 30.4868 585.5C32.7368 579 33.6118 576.625 34.1118 575.75C34.6118 574.875 35.4868 576 35.2368 576.375C34.9868 576.75 33.6118 579.375 32.9868 582C32.3618 584.625 28.6118 597.875 27.7368 602.25C26.8618 606.625 26.9868 608.625 26.2368 612.75C25.4868 616.875 23.6118 623.375 23.6118 628.5C23.6118 633.625 24.7368 637 28.2368 637C31.7368 637 33.3618 634.625 33.8618 633.75C34.3618 632.875 35.8618 629.375 36.4868 626.625C37.1118 623.875 38.2368 617.125 38.7368 615.125C39.2368 613.125 43.3618 594.875 44.7368 590.875C46.1118 586.875 47.2368 583 47.8618 582.375C48.4868 581.75 49.7368 582.375 49.3618 583.125C48.9868 583.875 45.1118 596.875 43.8618 603.125C42.6118 609.375 42.4868 613 41.3618 617.375C40.2368 621.75 36.2368 634.875 43.4868 635.75C50.7368 636.625 53.2368 620.5 53.9868 617.375C54.7368 614.25 57.3618 606 57.8618 603.625C58.3618 601.25 60.1118 593.75 61.1118 590.875C62.1118 588 63.4868 582.75 64.8618 583.125C66.2368 583.5 63.3618 590.875 62.8618 592.625C62.3618 594.375 61.6118 599.375 61.1118 601.25C60.8395 602.271 60.0482 604.998 59.3233 607.875M28.5524 591.422C28.1118 589.5 20.5127 587.875 18.7498 587.875M25.4998 569.75C31.8748 573.25 36.5989 576.625 41.3618 579.25C46.1248 581.875 55.3877 583.625 58.2498 583.125C60.5394 582.725 69.2038 582.625 73.2498 582.375M27.7368 616.875C29.4121 616.875 33.3601 617.2 35.7498 618.5M31.2498 595.875C33.2124 595.708 37.6851 595.875 39.8748 597.875M43.8618 615.875C45.5745 615.667 49.5498 615.575 51.7498 616.875M47.8618 597.875C49.1951 597.7 53.1368 598.055 55.7368 598.875M59.3233 607.875C59.7498 606.224 64.8618 605.5 68.2498 607.25M64.8618 594C65.3748 594 67.9998 592.625 71.8748 594M71.2498 533C68.6248 537.875 69.7498 550 73.2498 553.875M202.835 1093.21C210.89 1087.85 226.575 1069.88 224.875 1040.88M196.875 1105.38C205.541 1104.25 226.7 1103.3 242 1108.5M297.75 324.5V298.625M337.28 145.375C337.29 148.842 337.321 151.453 337.388 152.25C337.638 155.25 344.013 159.375 350.888 163.375C357.763 167.375 369.638 172.75 383.763 177.625C397.888 182.5 403.013 180.125 417.513 186C418.502 186.401 419.455 186.784 420.375 187.154C432.936 192.212 439.371 194.95 449.388 209.625C460.138 225.375 461.138 246.625 461.138 257.625C461.138 266.425 461.554 274.792 461.763 277.875C465.429 283.875 473.263 297.525 475.263 304.125C477.763 312.375 484.638 329.625 486.763 340C488.888 350.375 491.138 352.375 496.638 362.625C502.138 372.875 508.638 383.75 515.763 409.375C522.888 435 525.763 459.625 529.888 473C534.013 486.375 544.013 513.125 545.138 514.625C546.263 516.125 552.763 518.25 554.013 518.625C555.013 518.925 557.846 520.083 559.138 520.625C563.638 522.5 568.013 525.125 569.763 526.375C571.513 527.625 572.888 529.625 574.763 530.75C576.638 531.875 580.388 533.625 582.138 535C583.888 536.375 586.138 538.5 587.263 540C588.388 541.5 588.013 542.25 589.138 543.375C590.263 544.5 592.388 545.875 593.888 547.375C595.388 548.875 595.888 553.375 592.013 554.875C588.138 556.375 582.763 555.125 579.763 552.875C576.763 550.625 576.138 548.75 574.513 547.625C572.888 546.5 569.138 544.875 567.388 544.875M567.388 544.875C565.988 544.875 565.221 545.042 565.013 545.125C560.212 546.833 548.814 549.225 541.625 545.125C534.435 541.025 531.304 538.75 530.638 538.125M567.388 544.875C568.596 547.542 571.363 553.85 572.763 557.75C574.513 562.625 577.388 574.5 578.513 579C579.638 583.5 581.638 591.875 582.638 597.125C583.638 602.375 584.888 609.375 585.013 611.875C585.138 614.375 586.763 623 580.763 623.25C574.763 623.5 573.013 615.25 572.763 614.25C572.599 613.595 572.006 610.044 571.476 607.25M389.593 454.5C389.701 451.926 389.807 448.869 389.888 445.125C390.138 433.5 385.513 422.875 385.513 410.5C385.513 400.704 386.922 391.379 387.758 385.375C387.978 383.794 388.158 382.443 388.263 381.375C388.748 376.399 390.648 372.365 392.589 368.245L392.763 367.875C394.763 363.625 395.263 363.125 397.263 355.125C399.263 347.125 407.117 328.75 410.242 319.125M405.414 270.625C404.475 289.566 406.236 304.921 410.242 319.125C415.305 337.074 423.951 353.186 435.263 372.375C436.013 376.792 438.163 388.975 440.763 402.375C444.013 419.125 456.013 447.25 475.013 472.25C494.013 497.25 500.263 511 502.013 514.625C503.763 518.25 505.888 524.25 507.763 528.75C509.638 533.25 509.138 535.875 508.263 542C507.388 548.125 509.763 555.625 510.888 562.25C511.453 565.577 512.396 569.661 513.369 573.25C514.334 576.808 515.328 579.881 516.013 581.25C517.388 584 520.263 591.75 520.638 593.5C521.013 595.25 525.388 608.75 526.013 610.375C526.638 612 529.263 622.625 533.513 622.125C537.763 621.625 537.888 618.25 537.513 614.5C537.342 612.792 536.782 610.281 536.176 607.875M297.763 0.5C329.013 0.5 343.263 26.75 346.388 36.5C348.888 44.3 347.929 63.3333 347.138 71.875C347.721 70.5 349.438 67.85 351.638 68.25C353.752 68.6344 355.792 69.9792 356.509 73.25M389.593 454.5C389.367 459.919 389.138 463.199 389.138 466.25C389.138 470.75 394.138 479.25 396.388 496.5C398.106 509.676 399.752 515.924 400.768 522.875C401.082 525.024 401.336 527.241 401.513 529.75C404.383 547.5 410.175 588.425 410.375 610.125C410.625 637.25 408.375 669.75 408.125 680.125C407.875 690.5 406.5 704.875 403 717.875C402.667 719.11 402.309 720.362 401.932 721.625C398.344 733.654 393.101 746.664 392.875 755.375C392.625 765 396 767.125 396.25 782C396.5 796.875 395.625 812.125 395.375 816.125C395.125 820.125 405.125 866.375 403.5 887.625C401.875 908.875 395.25 948.75 392.375 967.125C389.5 985.5 383.5 1018.25 384.75 1034.38C386 1050.5 386.5 1051.5 386.5 1055.12C386.5 1058.75 384.75 1064.25 384.75 1069C384.75 1073.75 384.125 1077.25 384.75 1078.62C385.375 1080 386.875 1081.38 388 1084.12C389.125 1086.88 388.625 1089.12 390.375 1091.25C390.827 1091.8 391.638 1092.44 392.664 1093.21C395.607 1095.41 400.316 1098.65 403.375 1103.75C407.5 1110.62 407.25 1117.5 406.5 1119.88C405.75 1122.25 405 1121.38 405 1122.62C405 1123.88 403.875 1126.5 401.875 1126.5C399.875 1126.5 398.75 1126.12 398.625 1125.62M391.125 1127.5C391.625 1129.12 393.875 1129.62 396.5 1129.25C398.6 1128.95 398.791 1124.88 398.625 1122.88C398.708 1121.79 398.5 1119.18 397 1117.38M381.75 1118.75C382.35 1119.15 382.583 1123.17 382.625 1125.12C382.556 1125.77 382.574 1126.64 382.773 1127.5C383.177 1129.25 384.324 1131 387 1131C391 1131 391.416 1126.92 391.125 1124.88C391.041 1123.29 390.625 1119.85 389.625 1118.75M382.773 1127.5C382.974 1129.71 382.05 1134.12 376.75 1134.12C370.125 1134.12 371.125 1128 370.625 1127.75C370.125 1127.5 369 1127.5 368.75 1127.75M346.242 1101.42C346.116 1101.91 345.909 1102.42 345.625 1102.99C345.056 1104.14 344.175 1105.55 343 1107.62C339.75 1113.38 342.375 1118.12 342.75 1119.38C343.125 1120.62 345.625 1135.12 358.5 1135.75C363.625 1136 366 1134.62 367.625 1133C369.25 1131.38 368.5 1128 368.75 1127.75M368.75 1127.75C368.916 1125.29 368.75 1119.97 366.75 1118.38M323.869 757C322.404 748.705 320.485 735.586 320.125 730C319.787 724.762 316.252 709.248 313.224 695.959L312.92 694.625C311.586 688.771 310.378 683.443 309.625 679.75C307.125 667.5 301.25 641.875 301.375 616.125V603.034M301.375 603.034V602.941M390.487 221.125C395.616 226.75 405.875 239.7 405.875 246.5C405.875 255 407.507 279.625 399.125 289.75C385.513 306.193 371.75 309.25 356.375 309.25C336.151 309.25 334 308.5 328 307.25M387.758 385.375C386.755 390.167 381.525 402.775 368.625 414.875M389.593 454.5C389.277 461.5 375.483 464.25 368.625 464.75M420.375 187.154C407.5 182.751 391.5 184.625 373.625 189.125M342.375 194.75C336.583 194.917 323.575 195.575 317.875 196.875C310.75 198.5 309.375 197.75 315.25 189.125C317.458 185.75 322.125 178.175 323.125 174.875M337.28 145.375C337.262 138.403 337.332 127.97 337.388 121.875M337.28 145.375C337.145 154.458 337.425 173.625 339.625 177.625M478.25 375.5C477.25 379.292 475.425 387.4 476.125 389.5M476.125 389.5L477.625 394M476.125 389.5C471.225 388.4 464.5 385.125 461.75 383.625M400.768 522.875C399.093 513.375 390.625 493.125 384.75 491.875M401.932 721.625C397.625 735.059 387.5 750.625 378.25 759.375M312.92 694.625C310.256 660.825 316.613 632.208 320.125 622.125M323.869 757C324.436 760.213 324.936 762.703 325.25 763.75C326.375 767.5 325.75 789.375 327 799.125C328.25 808.875 334 818.875 337 834.75C340 850.625 332 872.25 330.625 889.25C329.25 906.25 328.875 925.5 336.25 948.25C343.625 971 347.75 1004.62 348 1019.12C348.25 1033.62 342 1046.75 341.625 1053.5C341.25 1060.25 342.25 1071.88 342.375 1074.88C342.5 1077.88 341.125 1078.62 341.125 1083.75C341.125 1088.88 344 1093 345.625 1097.12C346.369 1099.01 346.562 1100.17 346.242 1101.42M323.869 757C325.112 763.078 329.746 771.012 337 774.328M366.25 754.25C356.125 773 347 777.375 339.5 775.25C338.635 775.005 337.801 774.695 337 774.328M337 774.328C336.083 776.511 334.275 782.225 334.375 787.625M387.75 782C389.208 791.75 391.025 813.175 386.625 820.875C381.125 830.5 365.625 831.625 357.125 826.25M387.75 829C383.625 834.333 375.375 852.2 375.375 881C375.375 909.8 373.708 944.417 372.875 958.125M348 1047.5C349.75 1051 351.125 1058.88 348 1064M345.625 1102.99C345.852 1102.48 346.057 1101.95 346.242 1101.42M346.242 1101.42C347.992 1096.36 347.916 1090.47 347.125 1086.62M367.125 286.25C366.75 286.75 365 287.875 363 286.625M308.375 93.75C308.875 95.125 310.75 98 307 99.75M305.125 98.125C304.166 97.7917 302.125 97.625 300.625 99.125M346.375 82.5C346.375 84.5 348.112 85.25 347.625 87.25C347.138 89.25 344.5 91.375 344.5 92.5M352.5 84.625C352.75 83 350.375 81 349.5 79.625C349.076 78.9584 348.886 78.4974 348.804 78M348.75 76C348.75 76.9016 348.717 77.4714 348.804 78M348.804 78C348.536 78.7917 348.025 80.7 348.125 82M353.375 88.75C352.75 90.2917 351.225 93.725 350.125 95.125M356.509 73.25C354.018 66.875 350.125 71.625 349.5 73.5M530.638 562.25C534.138 561.125 541.125 559.75 550.513 560.125M571.476 607.25C571.197 605.779 570.935 604.517 570.763 604C570.399 602.907 568.708 597.04 566.947 591.422M571.476 607.25C572.763 605.25 574.513 604 579.763 604M566.947 591.422C566.29 589.326 565.624 587.266 565.013 585.5C562.763 579 561.888 576.625 561.388 575.75C560.888 574.875 560.013 576 560.263 576.375C560.513 576.75 561.888 579.375 562.513 582C563.138 584.625 566.888 597.875 567.763 602.25C568.638 606.625 568.513 608.625 569.263 612.75C570.013 616.875 571.888 623.375 571.888 628.5C571.888 633.625 570.763 637 567.263 637C563.763 637 562.138 634.625 561.638 633.75C561.138 632.875 559.638 629.375 559.013 626.625C558.388 623.875 557.263 617.125 556.763 615.125C556.263 613.125 552.138 594.875 550.763 590.875C549.388 586.875 548.263 583 547.638 582.375C547.013 581.75 545.763 582.375 546.138 583.125C546.513 583.875 550.388 596.875 551.638 603.125C552.888 609.375 553.013 613 554.138 617.375C555.263 621.75 559.263 634.875 552.013 635.75C544.763 636.625 542.263 620.5 541.513 617.375C540.763 614.25 538.138 606 537.638 603.625C537.138 601.25 535.388 593.75 534.388 590.875C533.388 588 532.013 582.75 530.638 583.125C529.263 583.5 532.138 590.875 532.638 592.625C533.138 594.375 533.888 599.375 534.388 601.25C534.66 602.271 535.451 604.998 536.176 607.875M566.947 591.422C567.388 589.5 574.987 587.875 576.75 587.875M570 569.75C563.625 573.25 558.901 576.625 554.138 579.25C549.375 581.875 540.112 583.625 537.25 583.125C534.96 582.725 526.296 582.625 522.25 582.375M567.763 616.875C566.087 616.875 562.139 617.2 559.75 618.5M564.25 595.875C562.287 595.708 557.814 595.875 555.625 597.875M551.638 615.875C549.925 615.667 545.95 615.575 543.75 616.875M547.638 597.875C546.304 597.7 542.363 598.055 539.763 598.875M536.176 607.875C535.75 606.224 530.638 605.5 527.25 607.25M530.638 594C530.125 594 527.5 592.625 523.625 594M524.25 533C526.875 537.875 525.75 550 522.25 553.875M392.664 1093.21C384.609 1087.85 368.925 1069.88 370.625 1040.88M398.625 1105.38C389.958 1104.25 368.8 1103.3 353.5 1108.5M234.125 288.5C236.25 287.218 237.635 284.738 235.25 282.75C232.25 280.25 227.875 281 225.875 283.25C224.348 284.967 224.057 286.952 226.25 288.5C228.375 290 232 289.782 234.125 288.5ZM297.75 439.625C294.125 439.625 292.75 437.75 292.75 436.375C292.75 435 294 433.125 297.75 433.125C301.5 433.125 302.75 435 302.75 436.375C302.75 437.75 301.375 439.625 297.75 439.625ZM286.375 71.5C287.125 72 287.25 73.375 285.625 73.375C283.496 73.375 282.75 75.75 277.375 75.75C273.075 75.75 270.666 73.6667 269.75 72.625C270.504 71.7799 273.041 69.5726 275.375 68.8335C276.263 68.5522 277.23 68.375 278.25 68.375C279.275 68.375 280.252 68.5102 281.155 68.7248C284.323 69.4779 286.031 71.2711 286.375 71.5ZM228.75 1129.25C230.208 1128.12 236.425 1126.7 243.625 1130L246.75 1124.38C237.75 1121.57 231.333 1122.75 230 1124.38L228.75 1129.25ZM215.25 1129.25C216.166 1128.67 219.525 1127.85 222.125 1129.25L222.75 1125.75C221.365 1125.25 217.226 1124.55 215.25 1125.75V1129.25ZM206.289 1126.88C207.206 1126.29 209.164 1126.38 210.164 1126.88L210.625 1125.12C209.24 1124.62 207.875 1124.38 206.125 1125.12L206.289 1126.88ZM198.5 1125.38C199.416 1124.79 201.375 1124.88 202.375 1125.38L202.835 1123.62C201.451 1123.12 200.085 1122.88 198.335 1123.62L198.5 1125.38ZM192.688 1124.38C193.605 1123.79 195.375 1123.38 196.375 1123.88V1122.25C194.99 1121.75 194.274 1121.88 192.524 1122.62L192.688 1124.38ZM361.375 288.5C359.25 287.218 357.864 284.738 360.25 282.75C363.25 280.25 367.625 281 369.625 283.25C371.151 284.967 371.442 286.952 369.25 288.5C367.125 290 363.5 289.782 361.375 288.5ZM309.125 71.5C308.375 72 308.25 73.375 309.875 73.375C312.003 73.375 312.75 75.75 318.125 75.75C322.425 75.75 324.833 73.6667 325.75 72.625C324.995 71.7799 322.459 69.5726 320.125 68.8335C319.237 68.5522 318.27 68.375 317.25 68.375C316.224 68.375 315.248 68.5102 314.345 68.7248C311.177 69.4779 309.468 71.2711 309.125 71.5ZM366.75 1129.25C365.291 1128.12 359.075 1126.7 351.875 1130L348.75 1124.38C357.75 1121.57 364.166 1122.75 365.5 1124.38L366.75 1129.25ZM380.25 1129.25C379.333 1128.67 375.975 1127.85 373.375 1129.25L372.75 1125.75C374.135 1125.25 378.273 1124.55 380.25 1125.75V1129.25ZM389.21 1126.88C388.294 1126.29 386.335 1126.38 385.335 1126.88L384.875 1125.12C386.26 1124.62 387.625 1124.38 389.375 1125.12L389.21 1126.88ZM397 1125.38C396.083 1124.79 394.125 1124.88 393.125 1125.38L392.664 1123.62C394.049 1123.12 395.414 1122.88 397.164 1123.62L397 1125.38ZM402.811 1124.38C401.895 1123.79 400.125 1123.38 399.125 1123.88V1122.25C400.51 1121.75 401.226 1121.88 402.976 1122.62L402.811 1124.38Z" stroke="black" stroke-linecap="round" stroke-linejoin="round"/>
    </g>
</svg>
