<svg width="597" height="1135" viewBox="0 0 597 1135" fill="none" xmlns="http://www.w3.org/2000/svg">
    <g fill="none">
        <path fill-rule="evenodd" clip-rule="evenodd" d="M263.695 15.2252C255.886 22.9557 251.574 31.8984 250.029 36.7166C248.804 40.5382 248.415 47.1831 248.441 54.002C248.467 60.7977 248.904 67.6886 249.3 71.9551C249.322 72.2009 249.163 72.4267 248.923 72.487C248.684 72.5473 248.436 72.4242 248.34 72.1969C248.066 71.5508 247.521 70.6011 246.798 69.8713C246.069 69.1352 245.247 68.7056 244.383 68.8627C243.397 69.0419 242.449 69.4409 241.667 70.159C240.887 70.8747 240.242 71.9344 239.902 73.4859C239.697 74.4218 239.603 75.5377 239.659 76.8636C239.783 79.7778 240.218 83.2885 240.886 86.5194C241.557 89.7643 242.452 92.6712 243.473 94.413C244.019 95.3447 244.569 96.5093 245.125 97.7027C245.171 97.8032 245.218 97.9039 245.265 98.0047C245.78 99.1112 246.303 100.236 246.848 101.255C247.445 102.371 248.049 103.324 248.668 103.97C249.291 104.62 249.847 104.878 250.367 104.813C251.788 104.635 252.554 104.201 253.007 103.761C253.43 103.35 253.62 102.902 253.8 102.477C253.817 102.437 253.833 102.397 253.85 102.358C253.879 102.29 253.917 102.212 253.966 102.142C253.997 102.098 254.117 101.931 254.344 101.892C254.648 101.838 254.832 102.044 254.89 102.129C254.951 102.218 254.981 102.313 254.998 102.371C255.063 102.602 255.101 103.005 255.139 103.453C255.15 103.588 255.161 103.733 255.174 103.887C255.247 104.809 255.345 106.038 255.557 107.36C255.655 107.974 255.754 108.788 255.866 109.711C255.899 109.981 255.932 110.26 255.968 110.547C256.125 111.821 256.313 113.251 256.562 114.678C256.811 116.107 257.12 117.522 257.517 118.768C257.916 120.021 258.393 121.065 258.96 121.778C259.03 121.865 259.068 121.973 259.069 122.085C259.125 128.191 259.195 138.645 259.177 145.633C259.167 149.093 259.136 151.736 259.067 152.56C258.992 153.467 258.465 154.388 257.7 155.288C256.926 156.199 255.858 157.147 254.6 158.112C252.084 160.043 248.741 162.092 245.296 164.096C238.372 168.124 226.444 173.521 212.275 178.412C205.681 180.687 201.025 181.398 196.51 182.086C196.147 182.141 195.785 182.197 195.424 182.252C190.575 183.001 185.702 183.87 178.49 186.792C177.686 187.118 176.905 187.432 176.148 187.737L175.622 187.949C169.321 190.486 164.619 192.418 160.237 195.535C155.862 198.646 151.781 202.956 146.784 210.277C136.109 225.917 135.1 247.063 135.1 258.08C135.1 266.908 134.682 275.301 134.473 278.399C134.468 278.48 134.443 278.558 134.401 278.626C132.568 281.625 129.693 286.538 127.027 291.524C124.354 296.523 121.914 301.554 120.929 304.807C120.427 306.463 119.752 308.474 118.977 310.711C118.424 312.307 117.821 314.018 117.193 315.799C114.272 324.082 110.816 333.885 109.42 340.701C107.759 348.809 106.001 351.9 102.754 357.611C101.802 359.285 100.722 361.185 99.4781 363.502C99.024 364.348 98.5632 365.199 98.0959 366.061C92.8975 375.654 86.8953 386.73 80.3605 410.232C76.7976 423.046 74.2964 435.613 72.1678 446.663C71.9826 447.625 71.8001 448.575 71.62 449.513C69.7332 459.341 68.1021 467.837 66.2066 473.983C64.1364 480.695 60.5951 490.754 57.4324 499.319C55.8506 503.602 54.3622 507.515 53.1981 510.453C52.6162 511.922 52.1141 513.149 51.7214 514.059C51.5252 514.513 51.3546 514.892 51.2139 515.183C51.0801 515.46 50.9556 515.696 50.8517 515.834C50.6649 516.083 50.3909 516.317 50.0849 516.532C49.7735 516.751 49.402 516.97 48.9966 517.184C48.1856 517.612 47.2084 518.039 46.238 518.425C44.2963 519.199 42.3412 519.83 41.7043 520.021C40.7341 520.312 37.9249 521.459 36.62 522.006L36.6189 522.007C32.1468 523.87 27.797 526.481 26.0736 527.712C25.321 528.25 24.6386 528.934 23.9165 529.659C23.838 529.738 23.7589 529.817 23.6792 529.897C22.8826 530.694 22.0296 531.518 21.0314 532.117C20.3617 532.519 19.4541 533 18.4959 533.509C18.0917 533.724 17.6785 533.943 17.2705 534.163C15.8724 534.917 14.5326 535.681 13.6951 536.339C11.9596 537.702 9.74279 539.8 8.65228 541.254C8.23709 541.808 8.04714 542.243 7.8953 542.649C7.86972 542.717 7.84446 542.787 7.81868 542.859C7.69387 543.205 7.55667 543.585 7.30952 543.973C7.16034 544.207 6.97337 544.443 6.72744 544.689C6.18168 545.234 5.419 545.83 4.63683 546.441L4.44344 546.592C3.58013 547.267 2.69567 547.969 1.96904 548.696C1.56919 549.096 1.2192 549.805 1.07313 550.659C0.928422 551.506 0.993628 552.441 1.3609 553.273C1.74227 554.138 2.45982 554.918 3.67399 555.388C5.50438 556.096 7.72175 556.165 9.86688 555.769C12.0111 555.374 14.0335 554.524 15.4643 553.451C16.9223 552.357 17.8014 551.358 18.5246 550.48C18.6134 550.373 18.7008 550.266 18.7873 550.159C19.3949 549.414 19.9636 548.717 20.739 548.18C21.5943 547.588 22.9773 546.883 24.359 546.327C25.5897 545.832 26.8947 545.424 27.8591 545.349L29.8649 541.713C29.9985 541.471 30.3032 541.383 30.5454 541.517C30.7876 541.65 30.8756 541.955 30.742 542.197L28.6099 546.062C27.3954 548.743 24.6405 555.027 23.2486 558.904C21.7059 563.202 19.2775 572.993 17.9557 578.323C17.7849 579.012 17.6325 579.626 17.503 580.144C16.3763 584.651 14.3757 593.029 13.3768 598.273C12.3717 603.55 11.1289 610.52 11.0058 612.981C10.9903 613.291 10.9525 613.693 10.9099 614.146C10.8942 614.313 10.8777 614.488 10.8615 614.668C10.8007 615.342 10.7407 616.109 10.7204 616.91C10.6796 618.524 10.8036 620.214 11.3667 621.523C11.657 622.198 12.057 622.754 12.5971 623.153C13.1342 623.549 13.8405 623.811 14.7839 623.85C16.7893 623.934 18.2826 622.986 19.4086 621.649C21.2696 619.439 22.035 616.272 22.2562 615.357C22.2699 615.3 22.2816 615.252 22.2913 615.213C22.3679 614.907 22.5531 613.879 22.7909 612.544L22.856 612.179C23.0771 610.937 23.332 609.505 23.574 608.229C23.851 606.769 24.1196 605.466 24.3056 604.908C24.4514 604.471 24.8074 603.276 25.2953 601.638C26.0287 599.177 27.0603 595.714 28.1251 592.316C28.7837 590.215 29.453 588.146 30.0676 586.37C31.1945 583.115 31.9788 580.887 32.5444 579.363C33.1057 577.851 33.4633 576.998 33.7374 576.518C33.9181 576.202 34.1942 575.971 34.5555 575.943C34.8885 575.916 35.1656 576.074 35.3474 576.233C35.5342 576.397 35.6837 576.614 35.7678 576.836C35.8415 577.031 35.9149 577.372 35.7161 577.671C35.6158 577.821 35.2228 578.54 34.7718 579.567C34.3247 580.584 33.8362 581.869 33.5326 583.144C33.3149 584.058 32.723 586.245 32.0073 588.888C31.6867 590.072 31.3412 591.349 30.9933 592.643C29.8647 596.844 28.7115 601.24 28.2772 603.412C27.8432 605.582 27.6573 607.161 27.4856 608.722L27.4492 609.054C27.2902 610.507 27.1286 611.984 26.7762 613.922C26.5687 615.063 26.271 616.406 25.9524 617.843C25.6957 619.001 25.4254 620.22 25.1778 621.445C24.6156 624.224 24.1546 627.095 24.1546 629.61C24.1546 630.984 24.2366 632.217 24.4208 633.281C24.6697 634.72 25.0981 635.808 25.7202 636.53C26.3242 637.23 27.1432 637.624 28.2869 637.624C31.0249 637.624 32.5127 636.065 33.194 635.084C33.3186 634.905 33.4154 634.746 33.487 634.621C33.963 633.788 35.4478 630.328 36.0631 627.621C36.3652 626.291 36.7866 624.012 37.1998 621.778L37.2329 621.599C37.6537 619.323 38.0643 617.111 38.3196 616.09C38.4282 615.655 38.708 614.453 39.094 612.795C39.5957 610.64 40.2768 607.714 40.9948 604.7C42.2597 599.391 43.6437 593.788 44.3424 591.756C44.6856 590.757 45.0135 589.766 45.3226 588.829L45.3866 588.635C45.6715 587.771 45.9406 586.955 46.1894 586.23C46.4562 585.453 46.7031 584.772 46.9249 584.241C47.0358 583.976 47.1436 583.741 47.2476 583.548C47.347 583.363 47.461 583.181 47.5924 583.049C48.0982 582.544 48.8167 582.574 49.2976 582.815C49.545 582.938 49.7794 583.139 49.9124 583.415C50.0532 583.708 50.0612 584.051 49.8973 584.379L49.8965 584.38C49.8954 584.383 49.8931 584.388 49.8896 584.396C49.8845 584.408 49.8781 584.424 49.8702 584.444C49.8543 584.484 49.8346 584.537 49.8109 584.603C49.7636 584.736 49.7035 584.913 49.6319 585.131C49.4888 585.567 49.3026 586.158 49.0849 586.869C48.6497 588.289 48.0911 590.18 47.5049 592.243C46.3312 596.375 45.0526 601.179 44.4307 604.288C43.8644 607.12 43.5299 609.41 43.2265 611.486C43.1961 611.694 43.166 611.9 43.1359 612.105C42.8071 614.344 42.4909 616.371 41.9202 618.59C41.8461 618.878 41.7604 619.202 41.6668 619.555C40.9041 622.433 39.6211 627.274 39.842 631.084C39.9268 632.546 40.2319 633.798 40.8284 634.714C41.4098 635.607 42.2888 636.214 43.6239 636.376C45.5072 636.603 47.0829 635.545 48.4291 633.668C50.0339 631.432 51.1946 628.182 52.0223 625.172C52.6046 623.055 53.0074 621.12 53.2917 619.755C53.4129 619.172 53.5126 618.694 53.5954 618.348C53.9599 616.83 54.7587 614.126 55.5404 611.481L55.6369 611.155C56.4546 608.387 57.229 605.752 57.4741 604.588C57.9745 602.211 59.7333 594.668 60.7469 591.754C60.9176 591.263 61.104 590.687 61.3019 590.076C61.6678 588.946 62.0732 587.693 62.4915 586.632C62.8153 585.811 63.1652 585.053 63.5386 584.518C63.7246 584.251 63.938 584.008 64.1844 583.845C64.4414 583.675 64.7614 583.577 65.1084 583.672C65.5493 583.792 65.7287 584.181 65.7962 584.494C65.8653 584.814 65.8571 585.204 65.8131 585.608C65.724 586.426 65.4671 587.474 65.1605 588.536C64.852 589.604 64.485 590.712 64.1658 591.658C64.0998 591.853 64.0362 592.041 63.9756 592.22C63.7398 592.915 63.551 593.472 63.4547 593.809C63.2127 594.656 62.9047 596.316 62.5892 598.035L62.5536 598.229C62.2543 599.861 61.9512 601.514 61.704 602.441C61.624 602.741 61.5018 603.179 61.351 603.72C60.9783 605.056 60.4309 607.019 59.9141 609.071C59.3067 611.482 58.7549 613.965 58.5879 615.635C58.4884 616.63 58.4267 617.578 58.4652 618.443C58.5184 619.637 58.7607 620.617 59.3015 621.334C59.8292 622.034 60.6952 622.555 62.1551 622.726C62.9831 622.824 63.7971 622.392 64.6058 621.49C65.4102 620.594 66.1325 619.314 66.7586 617.93C67.3819 616.553 67.8959 615.105 68.2947 613.893C68.4641 613.378 68.6158 612.895 68.7466 612.479C68.9166 611.938 69.051 611.511 69.1423 611.273C69.449 610.476 70.6959 606.705 71.9191 602.894C73.1454 599.074 74.3235 595.288 74.5046 594.443C74.7017 593.523 75.5309 591.106 76.4663 588.612C77.4055 586.107 78.4779 583.456 79.1795 582.052C79.8396 580.732 80.8244 577.701 81.7923 574.131C82.7643 570.546 83.7052 566.472 84.2677 563.159C84.5514 561.488 84.9135 559.765 85.2812 558.032L85.3454 557.73C85.6927 556.094 86.0414 554.451 86.3348 552.823C86.9586 549.361 87.3219 546.014 86.8953 543.028C86.8531 542.733 86.8117 542.445 86.7714 542.165C85.9758 536.638 85.5845 533.92 87.4297 529.491C88.1283 527.814 88.8689 525.91 89.6146 523.991C90.8522 520.808 92.1039 517.589 93.2012 515.316C93.2797 515.153 93.3671 514.971 93.4643 514.768C95.5485 510.412 102.09 496.742 120.301 472.781C138.115 449.342 149.765 423.162 153.815 406.225C154.083 405.104 154.318 404.025 154.519 402.99C157.123 389.57 159.276 377.369 160.026 372.948C160.037 372.888 160.058 372.831 160.089 372.778C171.418 353.559 180.05 337.466 185.103 319.552C185.162 319.34 185.354 319.192 185.575 319.187C185.795 319.183 185.993 319.324 186.061 319.534C187.379 323.594 189.542 329.218 191.758 334.978C192.164 336.034 192.572 337.095 192.976 338.151C195.581 344.95 198.062 351.587 199.073 355.63C200.074 359.634 200.695 361.739 201.31 363.37C201.772 364.595 202.231 365.552 202.857 366.859C203.067 367.296 203.295 367.772 203.549 368.311L203.736 368.71C205.672 372.821 207.607 376.928 208.102 382C208.205 383.058 208.384 384.401 208.605 385.986C208.662 386.394 208.721 386.818 208.783 387.257C209.147 389.852 209.584 392.962 209.962 396.394C210.461 400.915 210.859 406.001 210.859 411.225C210.859 417.411 209.716 423.159 208.602 428.758L208.564 428.947C207.436 434.621 206.352 440.141 206.476 445.9C206.557 449.647 206.663 452.706 206.771 455.282C206.844 457.052 206.919 458.597 206.986 459.983C207.123 462.833 207.228 465.008 207.228 467.073C207.228 468.279 206.895 469.717 206.389 471.422C206.09 472.43 205.722 473.558 205.314 474.809C205.031 475.676 204.729 476.601 204.418 477.586C202.89 482.422 201.082 488.84 199.961 497.441C199.098 504.052 198.254 508.926 197.499 513.017C197.321 513.98 197.148 514.899 196.981 515.786C196.439 518.67 195.959 521.218 195.572 523.871C195.259 526.013 195.006 528.221 194.829 530.721C194.828 530.736 194.827 530.751 194.824 530.765C194.477 532.912 194.087 535.398 193.669 538.149C190.628 558.173 186.129 592.136 185.953 611.207C185.775 630.516 186.861 652.515 187.595 667.376C187.894 673.427 188.134 678.294 188.207 681.314C188.457 691.682 189.831 706.04 193.324 719.013C193.656 720.245 194.013 721.495 194.39 722.756C195.286 725.762 196.286 728.83 197.288 731.883L197.527 732.61C198.447 735.416 199.363 738.204 200.188 740.905C201.979 746.76 203.368 752.258 203.484 756.696C203.603 761.274 202.912 764.195 202.131 767.497C202.077 767.725 202.023 767.955 201.968 768.188C201.128 771.765 200.227 775.986 200.103 783.39C199.853 798.271 200.728 813.532 200.979 817.535C200.997 817.832 200.968 818.286 200.909 818.85C200.849 819.424 200.753 820.145 200.63 820.994C200.382 822.692 200.017 824.918 199.578 827.538C199.414 828.512 199.241 829.54 199.059 830.616C198.263 835.335 197.311 840.976 196.387 846.976C194.116 861.73 192.03 878.578 192.839 889.155C193.994 904.26 197.677 928.792 200.748 948.345C201.393 952.449 202.011 956.336 202.572 959.87C203.099 963.181 203.576 966.181 203.979 968.756C204.203 970.186 204.46 971.824 204.746 973.636C206.296 983.485 208.658 998.487 210.766 1013.29C213.261 1030.81 215.408 1048.09 215.429 1056.24C215.429 1058.64 215.102 1063.45 214.698 1067.82C214.496 1070.01 214.274 1072.09 214.063 1073.72C213.957 1074.53 213.854 1075.23 213.756 1075.78C213.663 1076.3 213.566 1076.74 213.457 1076.98C212.825 1078.37 211.373 1081.69 211.373 1084.54C211.373 1085.22 211.454 1085.91 211.561 1086.63C211.594 1086.85 211.629 1087.07 211.665 1087.3C211.744 1087.81 211.826 1088.33 211.886 1088.85C212.063 1090.37 212.07 1092.01 211.333 1093.75C210.597 1095.49 208.771 1097.4 207.069 1098.93C205.451 1100.38 203.874 1101.56 203.264 1102.01L203.158 1102.09C202.632 1102.49 202.15 1102.86 201.681 1103.23C199.534 1104.89 197.664 1106.34 193.175 1108.41C191.65 1109.11 190.249 1110.02 189.169 1111.03C188.083 1112.04 187.356 1113.12 187.114 1114.16C186.878 1115.16 187.086 1116.16 187.962 1117.1C188.861 1118.07 190.482 1119 193.101 1119.74C198.445 1121.25 202.937 1122.92 206.094 1124.21C207.673 1124.85 208.919 1125.4 209.771 1125.79C210.197 1125.99 210.524 1126.14 210.746 1126.25C210.857 1126.3 210.941 1126.34 210.998 1126.37L211.063 1126.4L211.08 1126.41L211.084 1126.41L211.086 1126.41C211.086 1126.41 211.086 1126.41 210.862 1126.86L211.086 1126.41C211.225 1126.48 211.324 1126.61 211.353 1126.77C211.715 1128.61 212.481 1129.88 213.607 1130.75C214.745 1131.64 216.302 1132.15 218.316 1132.38C224.471 1133.06 231.558 1133.62 237.751 1132.87C243.962 1132.11 248.798 1130.75 251.635 1125.65C251.77 1125.42 252.096 1124.66 252.461 1123.53C252.822 1122.41 253.21 1120.97 253.478 1119.39C254.018 1116.21 254.051 1112.55 252.51 1109.83C252.077 1109.06 251.68 1108.38 251.322 1107.77C250.72 1106.73 250.23 1105.89 249.868 1105.16C249.574 1104.57 249.352 1104.03 249.213 1103.49C249.039 1102.81 248.851 1101.26 248.798 1099.65C248.771 1098.85 248.777 1098.01 248.839 1097.25C248.901 1096.5 249.019 1095.79 249.232 1095.25C249.569 1094.39 249.725 1092.94 249.786 1091.23C249.832 1089.96 249.826 1088.6 249.82 1087.3C249.818 1086.87 249.816 1086.45 249.816 1086.04C249.816 1084.86 249.425 1082.94 248.949 1080.9C248.819 1080.34 248.683 1079.77 248.549 1079.21C248.199 1077.75 247.859 1076.33 247.665 1075.23C247.346 1073.43 247.387 1072.41 247.457 1071.02L247.462 1070.91C247.53 1069.56 247.619 1067.8 247.437 1064.53C247.06 1057.75 247.186 1035.44 247.437 1020.92C247.688 1006.35 251.825 972.617 259.232 949.771C261.285 943.436 262.736 937.375 263.732 931.558C266.305 916.526 265.836 903.123 264.844 890.861C264.342 884.654 262.955 877.838 261.539 870.876C261.021 868.327 260.499 865.758 260.014 863.193C258.214 853.661 256.943 844.185 258.465 836.132C259.975 828.141 262.177 821.632 264.15 815.916L264.376 815.26C266.259 809.811 267.883 805.109 268.478 800.473C269.099 795.623 269.256 787.736 269.397 780.554L269.398 780.51C269.468 776.944 269.535 773.557 269.654 770.826C269.714 769.454 269.787 768.242 269.881 767.252C269.975 766.272 270.091 765.476 270.248 764.955C270.552 763.94 271.048 761.477 271.618 758.25C273.085 749.942 275.003 736.823 275.362 731.257C275.509 728.976 276.246 724.823 277.268 719.809C278.293 714.782 279.613 708.854 280.939 703.004C281.385 701.032 281.833 699.068 282.27 697.15L282.591 695.741C283.927 689.874 285.136 684.543 285.889 680.85C287.141 674.718 289.189 664.109 290.933 654.89C291.805 650.281 292.601 646.02 293.184 642.842C293.475 641.253 293.712 639.935 293.879 638.98C294.05 638.003 294.138 637.448 294.145 637.343C294.154 637.187 294.211 636.882 294.29 636.453L294.328 636.244C294.432 635.678 294.576 634.878 294.747 633.793C295.089 631.625 295.539 628.317 295.988 623.49C296.885 613.836 297.775 598.106 297.775 573.261C297.775 572.984 298 572.76 298.276 572.76C298.553 572.76 298.777 572.984 298.777 573.261C298.777 598.106 299.667 613.836 300.564 623.49C301.013 628.317 301.464 631.625 301.806 633.793C301.976 634.878 302.121 635.678 302.224 636.244L302.263 636.453C302.342 636.882 302.398 637.187 302.407 637.343C302.414 637.448 302.503 638.003 302.673 638.98C302.84 639.935 303.078 641.253 303.369 642.842C303.951 646.02 304.747 650.281 305.619 654.89C307.363 664.109 309.411 674.718 310.663 680.85C311.416 684.543 312.625 689.874 313.961 695.741L314.282 697.15C314.719 699.068 315.167 701.032 315.614 703.004C316.939 708.854 318.259 714.782 319.284 719.809C320.307 724.823 321.043 728.976 321.191 731.257C321.55 736.823 323.468 749.942 324.935 758.25C325.505 761.477 326 763.94 326.305 764.955C326.461 765.476 326.578 766.272 326.671 767.252C326.765 768.242 326.839 769.454 326.898 770.826C327.018 773.557 327.084 776.944 327.154 780.51L327.155 780.554C327.296 787.736 327.453 795.623 328.075 800.473C328.669 805.109 330.294 809.811 332.176 815.26L332.403 815.916C334.376 821.632 336.578 828.141 338.088 836.132C339.61 844.185 338.338 853.661 336.538 863.193C336.054 865.758 335.531 868.327 335.013 870.876C333.597 877.838 332.211 884.654 331.708 890.861C330.717 903.123 330.248 916.526 332.82 931.558C333.816 937.375 335.267 943.436 337.321 949.771C344.727 972.617 348.865 1006.35 349.116 1020.92C349.366 1035.44 349.492 1057.75 349.115 1064.53C348.934 1067.8 349.022 1069.56 349.09 1070.91L349.096 1071.02C349.166 1072.41 349.206 1073.43 348.887 1075.23C348.693 1076.33 348.354 1077.75 348.003 1079.21C347.869 1079.77 347.733 1080.34 347.604 1080.9C347.127 1082.94 346.737 1084.86 346.737 1086.04C346.737 1086.45 346.735 1086.87 346.733 1087.3C346.727 1088.6 346.72 1089.96 346.766 1091.23C346.828 1092.94 346.983 1094.39 347.32 1095.25C347.533 1095.79 347.652 1096.5 347.713 1097.25C347.775 1098.01 347.781 1098.85 347.755 1099.65C347.701 1101.26 347.513 1102.81 347.339 1103.49C347.201 1104.03 346.978 1104.57 346.684 1105.16C346.322 1105.89 345.832 1106.73 345.23 1107.77C344.872 1108.38 344.475 1109.06 344.042 1109.83C342.504 1112.55 342.601 1116.17 343.176 1119.34C343.637 1121.9 344.383 1124.06 344.762 1125.16C344.842 1125.39 344.905 1125.58 344.946 1125.71C347.864 1131.37 352.332 1132.3 358.608 1133.13C364.873 1133.97 372.099 1133.06 378.237 1132.38C384.374 1131.69 385.054 1128.87 385.209 1126.72C385.248 1126.59 385.341 1126.48 385.466 1126.41L385.69 1126.86C385.466 1126.41 385.466 1126.41 385.467 1126.41L385.472 1126.41L385.489 1126.4L385.554 1126.37C385.611 1126.34 385.695 1126.3 385.806 1126.25C386.028 1126.14 386.355 1125.99 386.782 1125.79C387.633 1125.4 388.879 1124.85 390.458 1124.21C393.615 1122.92 398.107 1121.25 403.451 1119.74C406.07 1119 407.942 1118.07 408.841 1117.1C409.717 1116.16 409.924 1115.16 409.689 1114.16C409.446 1113.12 408.469 1112.04 407.383 1111.03C406.303 1110.02 404.902 1109.11 403.378 1108.41C398.888 1106.34 397.018 1104.89 394.871 1103.23C394.402 1102.86 393.92 1102.49 393.394 1102.09C392.882 1101.71 391.206 1100.48 389.484 1098.93C387.782 1097.4 385.956 1095.49 385.219 1093.75C384.482 1092.01 384.489 1090.37 384.666 1088.85C384.726 1088.33 384.808 1087.81 384.888 1087.3C384.923 1087.07 384.959 1086.85 384.991 1086.63C385.098 1085.91 385.179 1085.22 385.179 1084.54C385.179 1081.69 383.727 1078.37 383.096 1076.98C382.987 1076.74 382.889 1076.3 382.796 1075.78C382.698 1075.23 382.595 1074.53 382.49 1073.72C382.278 1072.09 382.056 1070.01 381.854 1067.82C381.451 1063.45 381.123 1058.64 381.123 1056.24C381.144 1048.09 383.292 1030.81 385.786 1013.29C387.894 998.487 390.256 983.486 391.807 973.637C392.092 971.824 392.35 970.186 392.573 968.756C392.976 966.183 393.453 963.186 393.979 959.878C394.541 956.342 395.159 952.452 395.804 948.345C398.875 928.792 402.559 904.26 403.714 889.155C404.522 878.578 402.436 861.73 400.165 846.976C399.242 840.978 398.29 835.339 397.494 830.621C397.312 829.543 397.138 828.513 396.975 827.538C396.535 824.918 396.17 822.692 395.923 820.994C395.799 820.145 395.704 819.424 395.644 818.85C395.584 818.286 395.555 817.832 395.574 817.535C395.824 813.532 396.699 798.271 396.449 783.39C396.325 775.986 395.424 771.765 394.584 768.188C394.53 767.955 394.475 767.725 394.421 767.497C393.64 764.195 392.95 761.274 393.069 756.696C393.184 752.258 394.573 746.76 396.364 740.905C397.19 738.204 398.105 735.417 399.025 732.611L399.264 731.883C400.266 728.83 401.266 725.762 402.163 722.756C402.539 721.495 402.897 720.245 403.228 719.013C406.721 706.04 408.096 691.682 408.345 681.314C408.418 678.294 408.659 673.427 408.957 667.377C409.691 652.516 410.777 630.516 410.599 611.207C410.424 592.136 405.924 558.173 402.883 538.149C402.465 535.398 402.075 532.912 401.728 530.765C401.726 530.751 401.724 530.736 401.723 530.721C401.546 528.221 401.293 526.013 400.98 523.871C400.593 521.218 400.114 518.67 399.571 515.786C399.405 514.899 399.232 513.98 399.054 513.017C398.298 508.926 397.454 504.052 396.592 497.441C395.47 488.84 393.663 482.422 392.134 477.586C391.823 476.601 391.521 475.675 391.238 474.809C390.83 473.558 390.462 472.43 390.163 471.422C389.657 469.717 389.325 468.279 389.325 467.073C389.325 465.008 389.429 462.833 389.567 459.984C389.633 458.597 389.708 457.052 389.782 455.282C389.889 452.706 389.996 449.647 390.076 445.9C390.2 440.141 389.117 434.621 387.988 428.947L387.951 428.758C386.837 423.159 385.693 417.411 385.693 411.225C385.693 406.001 386.092 400.915 386.59 396.394C386.968 392.962 387.405 389.852 387.77 387.256C387.831 386.818 387.891 386.394 387.947 385.986C388.168 384.401 388.347 383.058 388.451 382C388.945 376.928 390.88 372.82 392.816 368.71L392.829 368.681L393.004 368.311C393.257 367.772 393.486 367.296 393.695 366.859C394.322 365.552 394.78 364.595 395.242 363.37C395.858 361.739 396.478 359.634 397.479 355.63C398.49 351.587 400.971 344.95 403.576 338.151C403.98 337.095 404.388 336.035 404.794 334.98C407.01 329.219 409.173 323.594 410.491 319.534C410.559 319.324 410.757 319.183 410.977 319.187C411.198 319.192 411.39 319.34 411.45 319.552C416.502 337.466 425.135 353.559 436.464 372.778C436.482 372.809 436.496 372.841 436.508 372.875C436.516 372.899 436.522 372.923 436.526 372.948C437.277 377.369 439.43 389.57 442.034 402.99C442.234 404.025 442.469 405.104 442.737 406.225C446.788 423.162 458.437 449.342 476.251 472.781C494.462 496.742 501.004 510.412 503.088 514.768C503.185 514.971 503.273 515.153 503.351 515.316C504.448 517.589 505.7 520.809 506.938 523.992C507.683 525.91 508.424 527.815 509.123 529.491C510.968 533.92 510.576 536.638 509.781 542.165C509.741 542.445 509.699 542.733 509.657 543.028C509.23 546.014 509.594 549.361 510.218 552.823C510.511 554.451 510.859 556.093 511.207 557.729L511.271 558.032C511.639 559.765 512.001 561.488 512.285 563.159C512.847 566.472 513.788 570.546 514.76 574.131C515.728 577.701 516.713 580.732 517.373 582.052C518.074 583.456 519.147 586.107 520.086 588.612C521.021 591.106 521.851 593.523 522.048 594.443C522.229 595.288 523.407 599.074 524.633 602.894C525.856 606.705 527.103 610.476 527.41 611.273C527.501 611.51 527.636 611.938 527.805 612.478C527.936 612.894 528.088 613.378 528.258 613.893C528.656 615.105 529.17 616.553 529.794 617.93C530.42 619.314 531.142 620.594 531.946 621.49C532.755 622.392 533.569 622.824 534.397 622.726C535.857 622.555 536.723 622.034 537.251 621.334C537.792 620.617 538.034 619.637 538.087 618.443C538.126 617.578 538.064 616.63 537.964 615.635C537.797 613.965 537.246 611.482 536.638 609.071C536.121 607.019 535.574 605.056 535.201 603.72C535.051 603.179 534.928 602.741 534.848 602.441C534.601 601.513 534.297 599.858 533.998 598.224L533.963 598.035C533.648 596.316 533.34 594.656 533.098 593.809C533.001 593.473 532.813 592.917 532.577 592.222C532.517 592.043 532.453 591.854 532.387 591.658C532.067 590.712 531.7 589.604 531.392 588.536C531.085 587.474 530.828 586.426 530.739 585.608C530.695 585.204 530.687 584.814 530.756 584.494C530.824 584.181 531.003 583.792 531.444 583.672C531.791 583.577 532.111 583.675 532.368 583.845C532.614 584.008 532.828 584.251 533.014 584.518C533.387 585.053 533.737 585.811 534.061 586.632C534.479 587.693 534.885 588.946 535.251 590.077C535.448 590.688 535.635 591.263 535.805 591.754C536.819 594.668 538.578 602.211 539.078 604.588C539.323 605.752 540.098 608.387 540.915 611.155L541.012 611.481C541.794 614.127 542.592 616.83 542.957 618.348C543.04 618.693 543.139 619.172 543.261 619.754C543.545 621.12 543.948 623.055 544.53 625.172C545.358 628.182 546.518 631.432 548.123 633.668C549.469 635.545 551.045 636.603 552.928 636.376C554.263 636.214 555.142 635.607 555.724 634.714C556.32 633.798 556.626 632.546 556.71 631.084C556.931 627.274 555.648 622.433 554.885 619.555C554.792 619.202 554.706 618.878 554.632 618.59C554.061 616.371 553.745 614.344 553.416 612.105C553.386 611.9 553.356 611.694 553.326 611.485C553.022 609.409 552.688 607.12 552.122 604.288C551.5 601.179 550.221 596.375 549.047 592.243C548.461 590.18 547.903 588.289 547.467 586.869C547.25 586.158 547.063 585.567 546.92 585.131C546.849 584.913 546.789 584.736 546.741 584.603C546.718 584.537 546.698 584.484 546.682 584.444C546.674 584.424 546.668 584.408 546.663 584.396C546.657 584.384 546.655 584.379 546.655 584.379C546.491 584.051 546.499 583.708 546.64 583.415C546.773 583.139 547.007 582.938 547.255 582.815C547.736 582.574 548.454 582.544 548.96 583.049C549.091 583.181 549.205 583.363 549.305 583.548C549.358 583.647 549.412 583.757 549.468 583.876C549.52 583.99 549.573 584.112 549.627 584.241C549.849 584.772 550.096 585.453 550.363 586.23C550.527 586.708 550.699 587.224 550.88 587.768C550.993 588.112 551.11 588.466 551.23 588.829C551.539 589.766 551.867 590.757 552.21 591.756C552.909 593.788 554.293 599.391 555.557 604.7C556.276 607.716 556.958 610.644 557.459 612.799C557.845 614.455 558.124 615.656 558.233 616.09C558.488 617.111 558.899 619.323 559.319 621.599C559.743 623.89 560.179 626.256 560.489 627.621C561.104 630.328 562.589 633.788 563.065 634.621C563.137 634.746 563.234 634.905 563.358 635.084C564.04 636.065 565.527 637.624 568.265 637.624C569.409 637.624 570.228 637.23 570.832 636.53C571.454 635.808 571.883 634.72 572.132 633.281C572.316 632.217 572.398 630.984 572.398 629.61C572.398 627.095 571.937 624.224 571.375 621.445C571.127 620.22 570.857 619.001 570.6 617.844C570.281 616.406 569.984 615.063 569.776 613.922C569.424 611.983 569.262 610.507 569.103 609.054L569.067 608.722C568.895 607.161 568.709 605.582 568.275 603.412C567.841 601.24 566.688 596.844 565.559 592.643C565.212 591.35 564.867 590.076 564.546 588.892C563.83 586.247 563.238 584.059 563.02 583.144C562.716 581.869 562.228 580.584 561.781 579.567C561.33 578.54 560.937 577.821 560.836 577.671C560.637 577.372 560.711 577.031 560.785 576.836C560.869 576.614 561.018 576.397 561.205 576.233C561.387 576.074 561.664 575.916 561.997 575.943C562.358 575.971 562.634 576.202 562.815 576.518C563.089 576.998 563.447 577.851 564.008 579.363C564.574 580.887 565.358 583.115 566.485 586.37C567.099 588.146 567.769 590.215 568.427 592.316C569.492 595.713 570.523 599.175 571.256 601.636C571.745 603.275 572.101 604.471 572.247 604.908C572.433 605.466 572.701 606.769 572.978 608.229C573.244 609.632 573.526 611.224 573.761 612.544C573.999 613.879 574.184 614.907 574.261 615.213C574.271 615.252 574.282 615.3 574.296 615.357C574.517 616.272 575.283 619.439 577.144 621.649C578.27 622.986 579.763 623.934 581.768 623.85C582.712 623.811 583.418 623.549 583.955 623.153C584.495 622.754 584.895 622.198 585.186 621.523C585.749 620.214 585.873 618.524 585.832 616.91C585.812 616.109 585.752 615.342 585.691 614.668C585.631 614.004 585.568 613.405 585.546 612.981C585.423 610.52 584.181 603.55 583.176 598.273C582.177 593.029 580.176 584.651 579.049 580.144C578.92 579.626 578.768 579.012 578.597 578.323C577.275 572.994 574.846 563.202 573.304 558.904C571.912 555.027 569.157 548.743 567.942 546.062L565.81 542.197C565.677 541.955 565.765 541.65 566.007 541.517C566.249 541.383 566.554 541.471 566.687 541.713L568.693 545.349C569.658 545.424 570.963 545.832 572.193 546.327C573.575 546.883 574.958 547.588 575.813 548.18C576.589 548.717 577.158 549.415 577.765 550.16C577.852 550.266 577.939 550.373 578.028 550.48C578.751 551.358 579.63 552.357 581.088 553.451C582.519 554.524 584.541 555.374 586.685 555.769C588.831 556.165 591.048 556.096 592.878 555.388C594.092 554.918 594.81 554.138 595.191 553.273C595.559 552.441 595.624 551.506 595.479 550.659C595.333 549.805 594.983 549.096 594.583 548.696C593.857 547.969 592.972 547.267 592.109 546.592L591.915 546.441C591.133 545.83 590.371 545.234 589.825 544.689C589.579 544.443 589.392 544.207 589.243 543.973C588.996 543.585 588.858 543.205 588.734 542.859C588.708 542.787 588.683 542.717 588.657 542.649C588.505 542.243 588.315 541.808 587.9 541.254C586.81 539.8 584.593 537.702 582.857 536.339C582.02 535.681 580.68 534.917 579.282 534.163C578.874 533.943 578.461 533.724 578.056 533.509C577.098 533 576.191 532.519 575.521 532.117C574.523 531.518 573.67 530.694 572.873 529.897C572.794 529.818 572.715 529.738 572.636 529.659C571.914 528.935 571.231 528.25 570.479 527.712C568.755 526.481 564.405 523.87 559.933 522.007L559.932 522.006C558.627 521.459 555.818 520.312 554.848 520.021C554.211 519.83 552.256 519.199 550.314 518.425C549.344 518.039 548.367 517.612 547.556 517.184C547.15 516.97 546.779 516.751 546.467 516.532C546.161 516.317 545.887 516.083 545.701 515.834C545.635 515.747 545.562 515.623 545.484 515.473C545.437 515.384 545.388 515.286 545.338 515.183C545.198 514.892 545.027 514.513 544.831 514.059C544.438 513.149 543.936 511.922 543.354 510.453C542.19 507.515 540.702 503.602 539.12 499.319C535.957 490.754 532.416 480.695 530.346 473.983C528.45 467.837 526.819 459.341 524.932 449.513C524.752 448.575 524.57 447.625 524.385 446.663C522.256 435.613 519.755 423.046 516.192 410.232C509.657 386.73 503.655 375.654 498.456 366.061C497.989 365.199 497.528 364.348 497.074 363.502C495.831 361.185 494.751 359.285 493.798 357.611C490.551 351.9 488.793 348.809 487.132 340.701C485.736 333.885 482.28 324.082 479.359 315.798C478.731 314.017 478.128 312.307 477.575 310.711C476.8 308.474 476.125 306.463 475.623 304.807C474.638 301.554 472.198 296.523 469.525 291.524C466.859 286.538 463.984 281.625 462.152 278.626C462.109 278.558 462.085 278.48 462.079 278.399C461.87 275.301 461.452 266.908 461.452 258.08C461.452 247.063 460.443 225.917 449.768 210.277C444.771 202.956 440.69 198.646 436.316 195.535C431.933 192.418 427.231 190.486 420.931 187.949C420.01 187.578 419.054 187.194 418.063 186.792C410.85 183.87 405.977 183.001 401.129 182.252C400.767 182.197 400.405 182.141 400.043 182.086C395.528 181.398 390.871 180.687 384.278 178.412C370.108 173.521 358.18 168.124 351.256 164.096C347.811 162.092 344.469 160.043 341.952 158.112C340.695 157.147 339.627 156.199 338.853 155.288C338.087 154.388 337.561 153.467 337.485 152.56C337.416 151.736 337.385 149.093 337.376 145.633C337.357 138.645 337.428 128.191 337.483 122.085C337.484 121.973 337.523 121.865 337.592 121.778C338.16 121.065 338.636 120.021 339.035 118.768C339.432 117.522 339.741 116.107 339.99 114.678C340.239 113.251 340.427 111.821 340.584 110.547C340.62 110.26 340.654 109.98 340.687 109.709C340.799 108.787 340.897 107.974 340.996 107.36C341.207 106.038 341.305 104.809 341.379 103.887C341.391 103.733 341.402 103.588 341.414 103.453C341.451 103.005 341.489 102.602 341.554 102.371C341.571 102.313 341.602 102.218 341.662 102.129C341.721 102.044 341.904 101.838 342.208 101.892C342.436 101.931 342.555 102.098 342.586 102.142C342.635 102.212 342.673 102.29 342.702 102.358C342.719 102.397 342.736 102.437 342.753 102.477C342.933 102.902 343.122 103.35 343.545 103.761C343.998 104.201 344.764 104.635 346.186 104.813C346.705 104.878 347.261 104.62 347.885 103.97C348.503 103.324 349.107 102.371 349.704 101.255C350.249 100.236 350.772 99.1115 351.287 98.0052L351.428 97.7027C351.983 96.5093 352.533 95.3447 353.079 94.413C354.1 92.6712 354.995 89.7643 355.666 86.5194C356.334 83.2885 356.769 79.7778 356.893 76.8636C356.949 75.5377 356.855 74.4218 356.65 73.4859C356.31 71.9344 355.665 70.8747 354.885 70.159C354.103 69.4409 353.156 69.0419 352.17 68.8627C351.306 68.7056 350.483 69.1352 349.754 69.8713C349.031 70.6011 348.487 71.5508 348.212 72.1969C348.116 72.4242 347.868 72.5473 347.629 72.487C347.39 72.4267 347.23 72.2009 347.253 71.9551C347.648 67.6886 348.085 60.7977 348.111 54.002C348.137 47.1831 347.748 40.5382 346.523 36.7166C344.979 31.8984 340.666 22.9557 332.858 15.2252C325.06 7.50479 313.786 1.00102 298.289 1.00102C298.285 1.00102 298.28 1.00096 298.276 1.00085C298.272 1.00096 298.268 1.00102 298.263 1.00102C282.766 1.00102 271.492 7.50479 263.695 15.2252Z" fill="#E8D1C2"/>
        <path d="M118.504 310.547C115.391 319.536 110.634 332.277 108.929 340.6C106.801 350.993 104.547 352.997 99.0369 363.265C93.5271 373.533 87.0157 384.427 79.8781 410.098C72.7405 435.768 69.8604 460.436 65.7281 473.835C61.5958 487.234 51.5781 514.031 50.4512 515.534C49.3242 517.036 42.8127 519.165 41.5605 519.541C40.5587 519.841 37.7203 521.002 36.4264 521.544C31.9184 523.423 27.5357 526.052 25.7826 527.304C24.0295 528.557 22.6521 530.56 20.7738 531.687C18.8955 532.814 15.1388 534.567 13.3857 535.945C11.6327 537.322 9.37868 539.451 8.25169 540.953C7.3466 542.16 7.41069 542.882 6.88724 543.704C6.75891 543.905 6.59527 544.113 6.37338 544.334C5.24639 545.461 3.11763 546.839 1.61498 548.341C0.630336 549.326 0.0758311 551.601 0.902748 553.476C1.33777 554.462 2.15512 555.337 3.4933 555.855C7.37514 557.357 12.7597 556.105 15.765 553.851C18.7703 551.597 19.3964 549.719 21.0242 548.592C22.6521 547.465 26.4087 545.837 28.1618 545.837M28.1618 545.837C26.9514 548.508 24.1798 554.828 22.7773 558.735C21.0242 563.618 18.1442 575.514 17.0172 580.022C15.8902 584.53 13.8866 592.92 12.8849 598.179C11.8831 603.439 10.6309 610.451 10.5057 612.955C10.4234 614.601 9.692 618.898 10.9067 621.721M28.1618 545.837L30.3035 541.955M158.78 246.81C158.78 254.735 163.994 271.784 167.42 280.619C175.435 301.281 182.809 313.677 185.585 319.688C188.715 329.33 196.584 347.738 198.587 355.752C200.591 363.766 201.092 364.267 203.095 368.524L203.27 368.894C205.214 373.022 207.117 377.063 207.603 382.048C207.708 383.118 207.888 384.471 208.109 386.055C208.502 388.883 209.023 392.446 209.464 396.449M185.585 319.688C180.513 337.669 171.852 353.809 160.52 373.032C159.769 377.457 157.615 389.662 155.011 403.085C154.808 404.128 154.572 405.214 154.303 406.341M145.256 260.333C142.351 263.439 136.524 273.649 133.973 278.365C130.3 284.376 122.453 298.05 120.45 304.662C119.951 306.308 119.278 308.311 118.504 310.547M263.715 79.6396C256.903 87.5536 257.446 111.237 258.568 122.09C258.624 128.195 258.695 138.646 258.676 145.631C258.666 149.104 258.635 151.72 258.568 152.518C258.318 155.523 251.932 159.656 245.044 163.663C238.157 167.67 226.261 173.054 212.111 177.938C197.961 182.822 192.827 180.442 178.302 186.328C177.311 186.729 176.356 187.113 175.435 187.484C162.851 192.551 156.405 195.293 146.37 209.995C135.601 225.772 134.6 247.06 134.6 258.079C134.6 266.895 134.182 275.276 133.973 278.365M248.801 72.0011C248.217 70.6237 246.497 67.969 244.293 68.3697C242.175 68.7548 240.131 70.102 239.413 73.3786C239.197 74.364 239.101 75.524 239.159 76.8848C239.409 82.7701 240.912 91.0347 243.041 94.6661C245.17 98.2975 247.424 105.686 250.429 105.31C253.434 104.934 253.935 103.432 254.311 102.555C254.686 101.678 254.561 104.308 255.062 107.439C255.563 110.569 256.077 118.959 258.568 122.09M248.801 72.0011C248.008 63.4444 247.048 44.3774 249.552 36.5636C252.683 26.7964 266.958 0.5 298.263 0.5M248.801 72.0011L251.193 87.9042M281.427 703.115C278.777 714.814 276.151 726.807 275.862 731.289C275.501 736.885 273.578 750.027 272.111 758.337C271.543 761.556 271.042 764.05 270.728 765.099C269.601 768.856 270.227 790.769 268.975 800.536C267.722 810.304 261.962 820.321 258.957 836.224C255.952 852.127 263.966 873.791 265.343 890.821C266.336 903.1 266.809 916.551 264.226 931.643C263.226 937.482 261.769 943.567 259.708 949.925C252.32 972.715 248.188 1006.4 247.937 1020.93C247.687 1035.45 247.562 1057.74 247.937 1064.5C248.313 1071.26 247.54 1071.64 248.158 1075.15C248.689 1078.16 250.317 1083.54 250.317 1086.04C250.317 1089.3 250.444 1093.54 249.698 1095.43C248.953 1097.32 249.377 1102.11 249.698 1103.36C249.825 1103.86 250.032 1104.36 250.317 1104.94C250.887 1106.09 251.769 1107.5 252.946 1109.58C256.202 1115.34 252.445 1124.65 252.07 1125.9M298.276 573.26C298.276 622.973 294.715 636.247 294.645 637.374C294.575 638.501 288.885 668.679 286.38 680.95C285.625 684.65 284.415 689.987 283.079 695.852L282.775 697.188C282.333 699.129 281.88 701.117 281.427 703.115M298.276 573.26C298.276 600.433 292.641 607.996 279.618 615.335C270.372 620.545 243.054 625.227 227.652 620.844C216.707 617.73 208.368 609.324 204.486 600.433M298.276 573.26V538.95M298.276 573.26C298.276 622.973 301.838 636.247 301.908 637.374C301.977 638.501 307.668 668.679 310.172 680.95C310.927 684.65 312.137 689.987 313.473 695.852L313.777 697.188C314.22 699.129 314.673 701.117 315.125 703.115M298.276 573.26C298.276 600.433 303.911 607.996 316.934 615.335C326.181 620.545 353.499 625.227 368.901 620.844C379.846 617.73 388.185 609.324 392.067 600.433M250.317 1104.94C250.089 1104.43 249.884 1103.9 249.698 1103.36M41.4352 565.372C45.7057 564.37 46.6427 564.996 48.8362 566.999M26.534 562.992C28.5001 562.825 30.8519 562.366 33.0454 564.37M56.3365 569.253C58.3026 569.086 60.7797 568.627 62.9732 570.631M70.249 573.26C72.2151 573.093 74.0661 572.885 76.2596 574.888M298.276 538.95C298.276 528.056 287.382 521.169 280.745 506.142M298.276 538.95C298.276 528.056 309.17 521.169 315.807 506.142M209.464 396.449C209.962 400.958 210.358 406.025 210.358 411.225C210.358 423.621 205.725 434.265 205.976 445.911C206.056 449.661 206.163 452.724 206.27 455.302C206.497 460.731 206.727 464.017 206.727 467.073C206.727 471.581 201.718 480.096 199.464 497.377C197.742 510.576 196.094 516.835 195.076 523.798C194.762 525.951 194.507 528.172 194.33 530.685C193.982 532.834 193.592 535.322 193.174 538.073M209.464 396.449C210.268 410.432 213.452 440.827 219.763 450.544M210.862 1126.86C210.862 1126.86 203.609 1123.23 192.965 1120.23C182.322 1117.22 186.704 1110.83 192.965 1107.95C198.376 1105.46 199.91 1103.9 202.858 1101.69C203.886 1100.92 209.495 1096.81 210.872 1093.55C212.25 1090.3 210.872 1087.42 210.872 1084.54C210.872 1081.56 212.375 1078.15 213.001 1076.77C213.627 1075.4 214.928 1061 214.928 1056.24C214.887 1040.04 206.364 987.241 203.484 968.833C202.651 963.508 201.503 956.38 200.253 948.422C197.183 928.874 193.496 904.322 192.339 889.193C190.712 867.905 200.729 821.574 200.479 817.566C200.228 813.559 199.352 798.282 199.602 783.381C199.853 768.48 203.234 766.351 202.983 756.709C202.757 747.983 197.505 734.95 193.91 722.899C193.533 721.634 193.173 720.38 192.84 719.143C189.334 706.12 187.957 691.719 187.706 681.326C187.456 670.933 185.202 638.375 185.452 611.202C185.628 592.091 190.134 558.094 193.174 538.073M193.174 538.073C194.099 532.163 207.529 512.153 214.128 502.886M39.3421 631.113C39.5165 634.121 40.6048 636.516 43.564 636.873C45.7116 637.132 47.4431 635.902 48.8362 633.96C52.1546 629.335 53.5534 620.67 54.0826 618.465C54.8339 615.335 57.4635 607.07 57.9644 604.691C58.4653 602.312 60.2184 594.798 61.2201 591.918C62.2219 589.038 63.5993 583.779 64.9768 584.155C66.3542 584.53 63.4741 591.918 62.9732 593.671C62.4724 595.425 61.721 600.433 61.2201 602.312C60.9474 603.335 60.1546 606.066 59.4285 608.948C58.8213 611.359 58.2607 613.874 58.0896 615.585C57.9894 616.588 57.9248 617.564 57.9649 618.465C58.0752 620.941 58.9755 622.856 62.0967 623.224C66.3542 623.724 68.9838 613.081 69.6099 611.453C70.2361 609.825 74.6188 596.301 74.9944 594.548C75.3701 592.795 78.2502 585.031 79.6276 582.276C80.3133 580.905 81.3094 577.827 82.2758 574.262C83.2508 570.666 84.1957 566.576 84.7617 563.243C85.8887 556.606 88.2679 549.093 87.3913 542.957C86.5148 536.821 86.0139 534.192 87.8922 529.684C89.7705 525.176 91.8993 519.165 93.6524 515.534C95.4055 511.902 101.666 498.128 120.7 473.084C138.551 449.595 150.234 423.353 154.303 406.341M154.303 406.341C156.188 396.824 155.088 384.427 154.303 379.418M106.801 389.06C108.929 394.57 115.065 395.822 120.45 393.944M298.263 65.114C292.391 65.3644 285.379 65.4897 279.744 67.4932M118.504 310.547C115.829 318.163 116.558 328.954 118.504 332.962M153.145 306.039C146.834 312.45 138.152 326.659 134.6 332.962M185.585 258.079C201.725 265.217 195.214 273.857 231.916 282.998M273.232 206.113C287.257 246.81 289.01 258.079 267.597 293.517M284.752 421.868C283.125 429.131 277.364 436.77 267.597 439.9M50.4512 550.47L59.8557 529.684M63.7375 551.347L65.3654 543.458M0.902748 553.476C1.77059 553.851 3.75672 554.628 4.75849 554.728C6.0107 554.853 10.6439 549.844 10.7691 549.218C10.8943 548.592 11.8961 544.325 6.88724 543.704M10.9067 621.721C11.5402 623.193 12.703 624.265 14.7632 624.351C16.9661 624.442 18.5971 623.39 19.7919 621.971M10.9067 621.721C11.0278 620.135 11.3201 616.762 11.5204 615.961C11.7709 614.959 13.6492 613.707 15.9031 613.957C18.1571 614.208 19.6598 615.209 20.2859 616.587C20.7868 617.689 20.1652 620.636 19.7919 621.971M19.7919 621.971C21.857 619.519 22.6187 615.969 22.7773 615.335C22.9414 614.678 23.5353 611.121 24.0662 608.322C24.3459 606.848 24.6081 605.585 24.7809 605.067C25.1457 603.972 26.8391 598.095 28.6032 592.466C29.2611 590.367 29.9288 588.303 30.541 586.534C32.795 580.022 33.6716 577.643 34.1724 576.767C34.6733 575.89 35.5499 577.017 35.2994 577.393C35.049 577.768 33.6716 580.398 33.0454 583.028C32.4193 585.657 28.6627 598.931 27.7862 603.313C26.9096 607.696 27.0348 609.7 26.2835 613.832C25.5322 617.964 23.6539 624.476 23.6539 629.61C23.6539 631.002 23.7367 632.265 23.9273 633.366M23.9273 633.366C24.4398 636.329 25.7314 638.125 28.2871 638.125C31.2503 638.125 32.8719 636.425 33.6054 635.37M23.9273 633.366C24.1744 631.405 24.5434 628.207 25.0443 627.105C25.6704 625.728 27.173 624.1 30.1783 624.225C33.1836 624.351 34.5611 627.606 34.5611 628.358C34.5611 629.109 34.9038 629.485 33.6054 635.37M33.6054 635.37C33.7398 635.177 33.8444 635.005 33.922 634.869C34.4229 633.993 35.9255 630.486 36.5516 627.732C37.1777 624.977 38.3047 618.215 38.8056 616.211C39.3065 614.208 43.4388 595.925 44.8162 591.918C46.1936 587.911 47.3206 584.029 47.9467 583.403C48.5728 582.777 49.825 583.403 49.4494 584.155C49.0737 584.906 45.1919 597.929 43.9397 604.19C42.6875 610.451 42.5622 614.082 41.4352 618.465C40.7674 621.062 39.0884 626.737 39.3421 631.113M39.3421 631.113C39.7145 630.027 40.3065 627.506 40.6969 626.104C41.1848 624.351 43.1673 622.957 45.8309 623.224C48.3354 623.474 50.0795 625.102 50.2137 626.98C50.3478 628.859 49.4623 631.924 48.8362 633.96M57.9649 618.465C58.2367 617.422 58.8451 615.184 59.1044 614.583C59.4285 613.832 60.9827 612.58 63.3619 613.081C65.7411 613.582 66.4744 615.066 66.6176 616.211C66.7428 617.213 66.4924 618.465 65.2402 621.518M220.264 1102.44C214.754 1111.57 203.033 1131.17 218.26 1132.87C237.294 1135 266.47 1135.63 246.31 1102.44C241.676 1096.56 241.05 1056.61 242.678 1048.47M227.526 1056.24C231.357 1070.96 229.085 1083.71 225.705 1092.43M200.253 948.422C204.611 970.211 208.618 972.465 214.378 977.974M251.569 786.512C256.953 799.284 246.936 822.2 254.699 839.731M216.632 794.901C217.759 800.829 219.262 813.935 214.378 823.702M264.226 931.643C260.96 948.798 250.943 970.336 238.922 973.091M281.427 703.115C275.862 722.899 256.578 730.037 251.569 731.289M298.263 473.835V215.003M478.049 310.547C481.162 319.536 485.918 332.277 487.623 340.6C489.752 350.993 492.006 352.997 497.516 363.265C503.025 373.533 509.537 384.427 516.674 410.098C523.812 435.768 526.692 460.436 530.824 473.835C534.957 487.234 544.974 514.031 546.101 515.534C547.228 517.036 553.74 519.165 554.992 519.541C555.994 519.841 558.832 521.002 560.126 521.544C564.634 523.423 569.017 526.052 570.77 527.304C572.523 528.557 573.9 530.56 575.779 531.687C577.657 532.814 581.414 534.567 583.167 535.945C584.92 537.322 587.174 539.451 588.301 540.953C589.206 542.16 589.142 542.882 589.665 543.704C589.794 543.905 589.957 544.113 590.179 544.334C591.306 545.461 593.435 546.839 594.938 548.341C595.922 549.326 596.477 551.601 595.65 553.476C595.215 554.462 594.397 555.337 593.059 555.855C589.177 557.357 583.793 556.105 580.788 553.851C577.782 551.597 577.156 549.719 575.528 548.592C573.9 547.465 570.144 545.837 568.391 545.837M568.391 545.837C569.601 548.508 572.373 554.828 573.775 558.735C575.528 563.618 578.408 575.514 579.535 580.022C580.662 584.53 582.666 592.92 583.668 598.179C584.669 603.439 585.922 610.451 586.047 612.955C586.129 614.601 586.861 618.898 585.646 621.721M568.391 545.837L566.249 541.955M437.772 246.81C437.772 254.735 432.559 271.784 429.132 280.619C421.118 301.281 413.744 313.677 410.968 319.688C407.837 329.33 399.969 347.738 397.965 355.752C395.962 363.766 395.461 364.267 393.457 368.524L393.283 368.894C391.339 373.022 389.436 377.063 388.949 382.048C388.845 383.118 388.664 384.471 388.444 386.055C388.05 388.883 387.529 392.446 387.088 396.449M410.968 319.688C416.039 337.669 424.701 353.809 436.032 373.032C436.784 377.457 438.937 389.662 441.542 403.085C441.744 404.128 441.98 405.214 442.25 406.341M451.296 260.333C454.201 263.439 460.029 273.649 462.579 278.365C466.252 284.376 474.099 298.05 476.103 304.662C476.602 306.308 477.274 308.311 478.049 310.547M332.837 79.6396C339.649 87.5536 339.107 111.237 337.984 122.09C337.928 128.195 337.858 138.646 337.877 145.631C337.886 149.104 337.918 151.72 337.984 152.518C338.235 155.523 344.621 159.656 351.508 163.663C358.395 167.67 370.291 173.054 384.441 177.938C398.591 182.822 403.725 180.442 418.251 186.328C419.242 186.729 420.196 187.113 421.118 187.484C433.701 192.551 440.148 195.293 450.182 209.995C460.951 225.772 461.953 247.06 461.953 258.079C461.953 266.895 462.37 275.276 462.579 278.365M347.751 72.0011C348.336 70.6237 350.056 67.969 352.259 68.3697C354.377 68.7548 356.421 70.102 357.139 73.3786C357.355 74.364 357.451 75.524 357.393 76.8848C357.143 82.7701 355.64 91.0347 353.512 94.6661C351.383 98.2975 349.129 105.686 346.124 105.31C343.118 104.934 342.617 103.432 342.242 102.555C341.866 101.678 341.991 104.308 341.49 107.439C340.99 110.569 340.476 118.959 337.984 122.09M347.751 72.0011C348.545 63.4444 349.505 44.3774 347 36.5636C343.87 26.7964 329.594 0.5 298.289 0.5M347.751 72.0011L345.359 87.9042M315.125 703.115C317.776 714.814 320.402 726.807 320.691 731.289C321.052 736.885 322.974 750.027 324.442 758.337C325.01 761.556 325.51 764.05 325.825 765.099C326.952 768.856 326.326 790.769 327.578 800.536C328.83 810.304 334.59 820.321 337.596 836.224C340.601 852.127 332.587 873.791 331.209 890.821C330.216 903.1 329.744 916.551 332.327 931.643C333.326 937.482 334.783 943.567 336.844 949.925C344.232 972.715 348.365 1006.4 348.615 1020.93C348.866 1035.45 348.991 1057.74 348.615 1064.5C348.239 1071.26 349.013 1071.64 348.394 1075.15C347.863 1078.16 346.236 1083.54 346.236 1086.04C346.236 1089.3 346.109 1093.54 346.854 1095.43C347.599 1097.32 347.175 1102.11 346.854 1103.36C346.728 1103.86 346.521 1104.36 346.236 1104.94C345.666 1106.09 344.783 1107.5 343.606 1109.58C340.35 1115.34 344.107 1124.65 344.483 1125.9M346.236 1104.94C346.463 1104.43 346.669 1103.9 346.854 1103.36M555.117 565.372C550.847 564.37 549.91 564.996 547.716 566.999M570.019 562.992C568.052 562.825 565.701 562.366 563.507 564.37M540.216 569.253C538.25 569.086 535.773 568.627 533.579 570.631M526.304 573.26C524.337 573.093 522.486 572.885 520.293 574.888M387.088 396.449C386.591 400.958 386.194 406.025 386.194 411.225C386.194 423.621 390.827 434.265 390.577 445.911C390.496 449.661 390.39 452.724 390.282 455.302C390.056 460.731 389.826 464.017 389.826 467.073C389.826 471.581 394.835 480.096 397.089 497.377C398.81 510.576 400.459 516.835 401.476 523.798C401.791 525.951 402.045 528.172 402.223 530.685C402.57 532.834 402.96 535.322 403.378 538.073M387.088 396.449C386.285 410.432 383.101 440.827 376.79 450.544M385.691 1126.86C385.691 1126.86 392.943 1123.23 403.587 1120.23C414.231 1117.22 409.848 1110.83 403.587 1107.95C398.176 1105.46 396.643 1103.9 393.695 1101.69C392.667 1100.92 387.058 1096.81 385.68 1093.55C384.303 1090.3 385.68 1087.42 385.68 1084.54C385.68 1081.56 384.178 1078.15 383.552 1076.77C382.926 1075.4 381.624 1061 381.624 1056.24C381.665 1040.04 390.188 987.241 393.068 968.833C393.902 963.508 395.049 956.38 396.299 948.422C399.369 928.874 403.056 904.322 404.213 889.193C405.841 867.905 395.823 821.574 396.074 817.566C396.324 813.559 397.201 798.282 396.95 783.381C396.7 768.48 393.319 766.351 393.569 756.709C393.796 747.983 399.048 734.95 402.643 722.899C403.02 721.634 403.379 720.38 403.712 719.143C407.218 706.12 408.596 691.719 408.846 681.326C409.097 670.933 411.351 638.375 411.1 611.202C410.924 592.091 406.419 558.094 403.378 538.073M403.378 538.073C402.454 532.163 389.024 512.153 382.425 502.886M557.21 631.113C557.036 634.121 555.948 636.516 552.989 636.873C550.841 637.132 549.109 635.902 547.716 633.96C544.398 629.335 542.999 620.67 542.47 618.465C541.719 615.335 539.089 607.07 538.588 604.691C538.087 602.312 536.334 594.798 535.332 591.918C534.331 589.038 532.953 583.779 531.576 584.155C530.198 584.53 533.078 591.918 533.579 593.671C534.08 595.425 534.831 600.433 535.332 602.312C535.605 603.335 536.398 606.066 537.124 608.948C537.731 611.359 538.292 613.874 538.463 615.585C538.563 616.588 538.628 617.564 538.588 618.465C538.477 620.941 537.577 622.856 534.456 623.224C530.198 623.724 527.569 613.081 526.943 611.453C526.316 609.825 521.934 596.301 521.558 594.548C521.182 592.795 518.302 585.031 516.925 582.276C516.239 580.905 515.243 577.827 514.277 574.262C513.302 570.666 512.357 566.576 511.791 563.243C510.664 556.606 508.285 549.093 509.161 542.957C510.038 536.821 510.539 534.192 508.66 529.684C506.782 525.176 504.653 519.165 502.9 515.534C501.147 511.902 494.886 498.128 475.852 473.084C458.001 449.595 446.318 423.353 442.25 406.341M442.25 406.341C440.365 396.824 441.464 384.427 442.25 379.418M489.752 389.06C487.623 394.57 481.487 395.822 476.103 393.944M298.289 65.114C304.162 65.3644 311.174 65.4897 316.809 67.4932M478.049 310.547C480.723 318.163 479.994 328.954 478.049 332.962M443.407 306.039C449.718 312.45 458.401 326.659 461.953 332.962M410.968 258.079C394.827 265.217 401.339 273.857 364.636 282.998M323.32 206.113C309.296 246.81 307.543 258.079 328.955 293.517M311.8 421.868C313.428 429.131 319.188 436.77 328.955 439.9M546.101 550.47L536.697 529.684M532.815 551.347L531.187 543.458M595.65 553.476C594.782 553.851 592.796 554.628 591.794 554.728C590.542 554.853 585.909 549.844 585.783 549.218C585.658 548.592 584.656 544.325 589.665 543.704M585.646 621.721C585.012 623.193 583.85 624.265 581.789 624.351C579.586 624.442 577.955 623.39 576.761 621.971M585.646 621.721C585.525 620.135 585.232 616.762 585.032 615.961C584.782 614.959 582.903 613.707 580.649 613.957C578.395 614.208 576.893 615.209 576.267 616.587C575.766 617.689 576.387 620.636 576.761 621.971M576.761 621.971C574.696 619.519 573.934 615.969 573.775 615.335C573.611 614.678 573.017 611.121 572.486 608.322C572.207 606.848 571.944 605.585 571.772 605.067C571.407 603.972 569.713 598.095 567.949 592.466C567.291 590.367 566.624 588.303 566.011 586.534C563.758 580.022 562.881 577.643 562.38 576.767C561.879 575.89 561.003 577.017 561.253 577.393C561.504 577.768 562.881 580.398 563.507 583.028C564.133 585.657 567.89 598.931 568.766 603.313C569.643 607.696 569.518 609.7 570.269 613.832C571.02 617.964 572.899 624.476 572.899 629.61C572.899 631.002 572.816 632.265 572.625 633.366M572.625 633.366C572.113 636.329 570.821 638.125 568.265 638.125C565.302 638.125 563.681 636.425 562.947 635.37M572.625 633.366C572.378 631.405 572.009 628.207 571.508 627.105C570.882 625.728 569.38 624.1 566.374 624.225C563.369 624.351 561.991 627.606 561.991 628.358C561.991 629.109 561.649 629.485 562.947 635.37M562.947 635.37C562.813 635.177 562.708 635.005 562.631 634.869C562.13 633.993 560.627 630.486 560.001 627.732C559.375 624.977 558.248 618.215 557.747 616.211C557.246 614.208 553.114 595.925 551.736 591.918C550.359 587.911 549.232 584.029 548.606 583.403C547.98 582.777 546.727 583.403 547.103 584.155C547.479 584.906 551.361 597.929 552.613 604.19C553.865 610.451 553.99 614.082 555.117 618.465C555.785 621.062 557.464 626.737 557.21 631.113M557.21 631.113C556.838 630.027 556.246 627.506 555.856 626.104C555.368 624.351 553.385 622.957 550.722 623.224C548.217 623.474 546.473 625.102 546.339 626.98C546.205 628.859 547.09 631.924 547.716 633.96M538.588 618.465C538.316 617.422 537.707 615.184 537.448 614.583C537.124 613.832 535.57 612.58 533.191 613.081C530.811 613.582 530.078 615.066 529.935 616.211C529.81 617.213 530.06 618.465 531.312 621.518M376.289 1102.44C381.799 1111.57 393.519 1131.17 378.292 1132.87C359.259 1135 330.082 1135.63 350.243 1102.44C354.876 1096.56 355.502 1056.61 353.874 1048.47M369.026 1056.24C365.196 1070.96 367.468 1083.71 370.848 1092.43M396.299 948.422C391.941 970.211 387.934 972.465 382.174 977.974M344.984 786.512C339.599 799.284 349.617 822.2 341.853 839.731M379.92 794.901C378.793 800.829 377.291 813.935 382.174 823.702M332.327 931.643C335.592 948.798 345.61 970.336 357.631 973.091M315.125 703.115C320.691 722.899 339.975 730.037 344.984 731.289" stroke="black" stroke-linecap="round" stroke-linejoin="round"/>
    </g>
</svg>
